SplineFontDB: 3.0
FontName: Bodoni-48-Medium-Italic
FullName: Bodoni* 48 Medium Italic
FamilyName: Bodoni* 48 Medium
Weight: Medium
Copyright: Copyright (c) 2017, Owen Earl,,, (EwonRael@yahoo.com)
Version: 001.0
ItalicAngle: -13
UnderlinePosition: -408
UnderlineWidth: 204
Ascent: 3276
Descent: 820
InvalidEm: 0
LayerCount: 2
Layer: 0 0 "Back" 1
Layer: 1 0 "Fore" 0
PreferredKerning: 4
XUID: [1021 31 -699969567 16487490]
FSType: 0
OS2Version: 0
OS2_WeightWidthSlopeOnly: 0
OS2_UseTypoMetrics: 1
CreationTime: 1460762150
ModificationTime: 1556908194
PfmFamily: 17
TTFWeight: 500
TTFWidth: 5
LineGap: 410
VLineGap: 0
OS2TypoAscent: 3276
OS2TypoAOffset: 0
OS2TypoDescent: -820
OS2TypoDOffset: 0
OS2TypoLinegap: 410
OS2WinAscent: 4096
OS2WinAOffset: 0
OS2WinDescent: 1638
OS2WinDOffset: 0
HheadAscent: 4096
HheadAOffset: 0
HheadDescent: -820
HheadDOffset: 0
OS2CapHeight: 700
OS2XHeight: 460
OS2FamilyClass: 768
OS2Vendor: 'PfEd'
OS2UnicodeRanges: 00000001.00000000.00000000.00000000
Lookup: 1 0 0 "'ss04' Style Set 4 lookup 5" { "'ss04' Style Set 4 lookup 5-1"  } ['ss04' ('DFLT' <'dflt' > 'grek' <'dflt' > 'latn' <'dflt' > ) ]
Lookup: 1 0 0 "'ss02' Style Set 2 lookup 4" { "'ss02' Style Set 2 lookup 4-1"  } ['ss02' ('DFLT' <'dflt' > 'grek' <'dflt' > 'latn' <'dflt' > ) ]
Lookup: 1 0 0 "'ss03' Style Set 3 lookup 5" { "'ss03' Style Set 3 lookup 5-1"  } ['ss03' ('DFLT' <'dflt' > 'grek' <'dflt' > 'latn' <'dflt' > ) ]
Lookup: 1 0 0 "'ss01' Style Set 1 lookup 2" { "'ss01' Style Set 1 lookup 2-1"  } ['ss01' ('DFLT' <'dflt' > 'grek' <'dflt' > 'latn' <'dflt' > ) ]
Lookup: 5 0 0 "'calt' Contextual Alternates lookup 3" { "'calt' Contextual Alternates lookup 3-1"  } ['calt' ('DFLT' <'dflt' > 'grek' <'dflt' > 'latn' <'dflt' > ) ]
Lookup: 4 0 1 "'liga' Standard Ligatures lookup 0" { "'liga' Standard Ligatures lookup 0-1"  } ['liga' ('DFLT' <'dflt' > 'grek' <'dflt' > 'latn' <'dflt' > ) ]

StartChar: ampersand
Encoding: 38 38 0
GlifName: ampersand
Width: 3312
Flags: HMW
LayerCount: 2
Fore
SplineSet
1196 4 m 0
 2180 4 3216 920 3224 1478 c 2
 3224 1544 l 1
 3196 1396 3068 1290 2912 1290 c 0
 2732 1290 2630 1438 2630 1564 c 0
 2630 1712 2756 1840 2924 1840 c 0
 3128 1840 3248 1680 3248 1500 c 0
 3248 926 2204 -40 1036 -40 c 0
 458 -40 82 194 82 648 c 0
 82 1718 2174 1470 2174 2654 c 0
 2174 2826 2096 3096 1904 3096 c 0
 1592 3096 1462 2798 1462 2540 c 0
 1462 2396 1512 2200 1630 1926 c 2
 2294 390 l 2
 2364 222 2432 28 2596 28 c 0
 2760 28 2912 138 2986 294 c 1
 3002 286 l 1
 2924 106 2724 -40 2384 -40 c 0
 2084 -40 1884 78 1732 398 c 2
 1064 1926 l 2
 986 2098 950 2244 950 2388 c 0
 950 2798 1364 3112 1922 3112 c 0
 2278 3112 2642 2978 2642 2642 c 0
 2642 1740 614 2038 614 638 c 0
 614 400 786 4 1196 4 c 0
EndSplineSet
EndChar

StartChar: period
Encoding: 46 46 1
GlifName: period
Width: 916
Flags: HMW
LayerCount: 2
Fore
SplineSet
66 254 m 0
 66 418 196 548 360 548 c 0
 524 548 656 418 656 254 c 0
 656 90 524 -40 360 -40 c 0
 196 -40 66 90 66 254 c 0
EndSplineSet
EndChar

StartChar: zero
Encoding: 48 48 2
GlifName: zero
Width: 2604
Flags: HMW
LayerCount: 2
Fore
SplineSet
1844 3112 m 0
 2384 3112 2700 2676 2700 2180 c 0
 2700 996 1944 -40 1146 -40 c 0
 606 -40 290 396 290 892 c 0
 290 2076 1046 3112 1844 3112 c 0
1844 3096 m 0
 1226 3096 774 1438 774 680 c 0
 774 344 830 -24 1146 -24 c 0
 1764 -24 2216 1650 2216 2392 c 0
 2216 2728 2160 3096 1844 3096 c 0
EndSplineSet
EndChar

StartChar: one
Encoding: 49 49 3
GlifName: one
Width: 1880
VWidth: 4730
Flags: HMW
LayerCount: 2
Fore
SplineSet
-164 16 m 1
 1224 16 l 1
 1224 0 l 1
 -164 0 l 1
 -164 16 l 1
974 3056 m 1
 500 3056 l 1
 500 3072 l 1
 1470 3072 l 1
 774 0 l 1
 286 0 l 1
 974 3056 l 1
EndSplineSet
EndChar

StartChar: two
Encoding: 50 50 4
GlifName: two
Width: 2342
VWidth: 4730
Flags: HMW
LayerCount: 2
Fore
SplineSet
402 2196 m 1
 426 2310 528 2424 704 2424 c 0
 852 2424 988 2322 988 2158 c 0
 988 1970 840 1852 680 1852 c 0
 520 1852 376 1962 376 2166 c 0
 376 2646 844 3112 1438 3112 c 0
 1918 3112 2290 2892 2290 2466 c 0
 2290 2024 1646 1630 1372 1426 c 2
 140 466 l 1
 1880 466 l 1
 1946 774 l 1
 1962 774 l 1
 1794 0 l 1
 -168 0 l 1
 -94 324 l 1
 1052 1204 l 2
 1454 1508 1782 1990 1782 2384 c 0
 1782 2794 1630 3052 1278 3052 c 0
 828 3052 410 2618 402 2196 c 1
EndSplineSet
EndChar

StartChar: three
Encoding: 51 51 5
GlifName: three
Width: 2224
VWidth: 4730
Flags: HMW
LayerCount: 2
Fore
SplineSet
590 2490 m 0
 590 2802 954 3108 1454 3108 c 0
 1860 3108 2266 2986 2266 2528 c 0
 2266 2094 1864 1658 918 1658 c 1
 918 1676 l 1
 1570 1676 1762 2248 1762 2568 c 0
 1762 2900 1656 3076 1348 3076 c 0
 1020 3076 696 2864 634 2606 c 1
 658 2656 750 2732 872 2732 c 0
 1020 2732 1138 2626 1138 2466 c 0
 1138 2286 990 2196 864 2196 c 0
 716 2196 590 2306 590 2490 c 0
20 594 m 0
 20 786 140 906 308 906 c 0
 456 906 570 798 570 634 c 0
 570 478 438 368 294 368 c 0
 158 368 74 454 50 536 c 1
 70 246 364 -12 836 -12 c 0
 1324 -12 1548 542 1548 984 c 0
 1548 1316 1446 1658 918 1658 c 1
 918 1676 l 1
 1782 1676 2052 1400 2052 942 c 0
 2052 384 1474 -40 880 -40 c 0
 290 -40 20 290 20 594 c 0
EndSplineSet
EndChar

StartChar: four
Encoding: 52 52 6
GlifName: four
Width: 2542
VWidth: 4730
Flags: HMW
LayerCount: 2
Fore
SplineSet
2162 16 m 1
 2162 0 l 1
 978 0 l 1
 978 16 l 1
 2162 16 l 1
2502 3072 m 1
 1814 0 l 1
 1328 0 l 1
 1966 2936 l 1
 196 888 l 1
 2470 888 l 1
 2470 872 l 1
 160 872 l 1
 2064 3072 l 1
 2502 3072 l 1
EndSplineSet
Substitution2: "'ss03' Style Set 3 lookup 5-1" four.alt
EndChar

StartChar: five
Encoding: 53 53 7
GlifName: five
Width: 2150
VWidth: 4730
Flags: HMW
LayerCount: 2
Fore
SplineSet
2020 1138 m 0
 2020 490 1372 -40 754 -40 c 0
 304 -40 0 240 0 552 c 0
 0 736 126 848 274 848 c 0
 400 848 548 758 548 578 c 0
 548 410 418 312 274 312 c 0
 138 312 48 394 28 472 c 1
 68 210 348 -20 712 -20 c 0
 1240 -20 1500 714 1500 1180 c 0
 1500 1548 1382 1872 1082 1872 c 0
 766 1872 476 1728 332 1520 c 1
 312 1520 l 1
 460 1754 788 1900 1160 1900 c 0
 1672 1900 2020 1670 2020 1138 c 0
2228 2606 m 1
 696 2606 l 1
 320 1520 l 1
 304 1520 l 1
 840 3072 l 1
 2310 3072 l 1
 2360 3298 l 1
 2376 3298 l 1
 2228 2606 l 1
EndSplineSet
EndChar

StartChar: six
Encoding: 54 54 8
GlifName: six
Width: 2374
VWidth: 4730
Flags: HMW
LayerCount: 2
Fore
SplineSet
1786 1302 m 0
 1786 1688 1708 1946 1496 1946 c 0
 948 1946 700 1064 700 622 c 1
 684 622 l 1
 684 1080 930 2012 1598 2012 c 0
 1946 2012 2294 1802 2294 1228 c 0
 2294 580 1666 -40 1032 -40 c 0
 560 -40 204 246 204 902 c 0
 204 1808 1188 3112 2396 3112 c 1
 2396 3096 l 1
 1434 3096 704 1752 704 790 c 1
 700 622 l 1
 700 278 802 -24 1048 -24 c 0
 1462 -24 1786 810 1786 1302 c 0
EndSplineSet
EndChar

StartChar: seven
Encoding: 55 55 9
GlifName: seven
Width: 2150
VWidth: 4730
Flags: HMW
LayerCount: 2
Fore
SplineSet
598 304 m 0
 598 640 1086 1160 1422 1602 c 0
 1626 1872 1912 2260 2162 2584 c 1
 552 2584 l 1
 484 2278 l 1
 466 2278 l 1
 638 3072 l 1
 2564 3072 l 1
 2564 3072 1860 2150 1474 1634 c 0
 1192 1258 926 950 926 766 c 0
 926 562 1220 568 1220 278 c 0
 1220 102 1096 -40 892 -40 c 0
 728 -40 598 78 598 304 c 0
EndSplineSet
EndChar

StartChar: eight
Encoding: 56 56 10
GlifName: eight
Width: 2350
VWidth: 4730
Flags: HMW
LayerCount: 2
Fore
SplineSet
992 2106 m 0
 992 1852 1044 1572 1286 1572 c 0
 1626 1572 1852 2056 1852 2498 c 0
 1852 2744 1798 3096 1552 3096 c 0
 1228 3096 992 2548 992 2106 c 0
492 2150 m 0
 492 2642 950 3112 1552 3112 c 0
 2072 3112 2352 2766 2352 2438 c 0
 2352 1938 1868 1560 1290 1560 c 0
 794 1560 492 1822 492 2150 c 0
614 590 m 0
 614 254 738 -24 1020 -24 c 0
 1400 -24 1630 524 1630 966 c 0
 1630 1302 1506 1552 1224 1552 c 0
 844 1552 614 1032 614 590 c 0
122 614 m 0
 122 1106 484 1568 1208 1568 c 0
 1810 1568 2130 1352 2130 942 c 0
 2130 450 1768 -40 1044 -40 c 0
 442 -40 122 204 122 614 c 0
EndSplineSet
EndChar

StartChar: A
Encoding: 65 65 12
GlifName: A_
Width: 3042
Flags: HMW
LayerCount: 2
Fore
SplineSet
-188 16 m 1
 712 16 l 1
 712 0 l 1
 -188 0 l 1
 -188 16 l 1
1474 16 m 1
 2760 16 l 1
 2760 0 l 1
 1474 0 l 1
 1474 16 l 1
770 1012 m 1
 2106 1012 l 1
 2106 996 l 1
 770 996 l 1
 770 1012 l 1
1688 2568 m 1
 200 0 l 1
 180 0 l 1
 1986 3134 l 1
 2084 3134 l 1
 2474 0 l 1
 1946 0 l 1
 1688 2568 l 1
EndSplineSet
EndChar

StartChar: B
Encoding: 66 66 13
GlifName: B_
Width: 2650
Flags: HMW
LayerCount: 2
Fore
SplineSet
1130 0 m 2
 -188 0 l 1
 -188 16 l 1
 1130 16 l 2
 1584 16 1900 520 1900 1064 c 0
 1900 1428 1720 1568 1426 1568 c 2
 926 1568 l 1
 926 1586 l 1
 1482 1586 l 2
 2060 1586 2450 1400 2450 966 c 0
 2450 352 1838 0 1130 0 c 2
898 3072 m 1
 1384 3072 l 1
 668 0 l 1
 180 0 l 1
 898 3072 l 1
1418 1568 m 2
 926 1568 l 1
 926 1586 l 1
 1418 1586 l 2
 1730 1586 2166 1942 2166 2536 c 0
 2166 2810 2040 3056 1720 3056 c 2
 528 3056 l 1
 528 3072 l 1
 1724 3072 l 2
 2400 3072 2674 2888 2674 2462 c 0
 2674 1954 2078 1568 1418 1568 c 2
EndSplineSet
EndChar

StartChar: C
Encoding: 67 67 14
GlifName: C_
Width: 2764
Flags: HMW
LayerCount: 2
Fore
SplineSet
1306 -40 m 0
 654 -40 222 376 222 1044 c 0
 222 2162 1050 3112 2020 3112 c 0
 2520 3112 2870 2794 2834 2208 c 1
 2818 2208 l 1
 2850 2794 2490 3084 2084 3084 c 0
 1232 3084 762 1692 762 782 c 0
 762 372 938 -12 1364 -12 c 0
 1888 -12 2336 372 2544 864 c 1
 2560 864 l 1
 2364 360 1892 -40 1306 -40 c 0
2818 2208 m 1
 2822 2326 l 1
 2814 2498 2774 2672 2692 2782 c 1
 3018 3072 l 1
 3036 3072 l 1
 2834 2208 l 1
 2818 2208 l 1
2544 864 m 1
 2560 864 l 1
 2334 0 l 1
 2318 0 l 1
 2142 282 l 1
 2244 376 2384 516 2486 712 c 1
 2544 864 l 1
EndSplineSet
EndChar

StartChar: D
Encoding: 68 68 15
GlifName: D_
Width: 2944
Flags: HMW
LayerCount: 2
Fore
SplineSet
918 3072 m 1
 1404 3072 l 1
 708 0 l 1
 222 0 l 1
 918 3072 l 1
1118 0 m 2
 -148 0 l 1
 -148 16 l 1
 1086 16 l 2
 1938 16 2400 1388 2400 2216 c 0
 2400 2592 2258 3056 1774 3056 c 2
 508 3056 l 1
 508 3072 l 1
 1798 3072 l 2
 2466 3072 2950 2704 2950 2012 c 0
 2950 918 2138 0 1118 0 c 2
EndSplineSet
EndChar

StartChar: E
Encoding: 69 69 16
GlifName: E_
Width: 2416
Flags: HMW
LayerCount: 2
Fore
SplineSet
504 3072 m 1
 2728 3072 l 1
 2532 2232 l 1
 2514 2232 l 1
 2592 2670 2434 3056 1954 3056 c 2
 504 3056 l 1
 504 3072 l 1
872 3072 m 1
 1360 3072 l 1
 648 0 l 1
 160 0 l 1
 872 3072 l 1
1220 1582 m 2
 938 1582 l 1
 938 1598 l 1
 1220 1598 l 2
 1454 1598 1712 1770 1798 2044 c 1
 1814 2044 l 1
 1602 1114 l 1
 1586 1114 l 1
 1622 1388 1454 1582 1220 1582 c 2
2056 0 m 1
 -188 0 l 1
 -188 16 l 1
 1242 16 l 2
 1804 16 2108 402 2252 922 c 1
 2270 922 l 1
 2056 0 l 1
EndSplineSet
EndChar

StartChar: F
Encoding: 70 70 17
GlifName: F_
Width: 2326
Flags: HMW
LayerCount: 2
Fore
SplineSet
1142 1520 m 2
 934 1520 l 1
 934 1536 l 1
 1142 1536 l 2
 1478 1536 1732 1696 1810 1970 c 1
 1826 1970 l 1
 1614 1064 l 1
 1598 1064 l 1
 1634 1338 1482 1520 1142 1520 c 2
-188 16 m 1
 1056 16 l 1
 1056 0 l 1
 -188 0 l 1
 -188 16 l 1
872 3072 m 1
 1360 3072 l 1
 648 0 l 1
 160 0 l 1
 872 3072 l 1
504 3072 m 1
 2678 3072 l 1
 2482 2232 l 1
 2466 2232 l 1
 2544 2670 2392 3056 1912 3056 c 2
 504 3056 l 1
 504 3072 l 1
EndSplineSet
EndChar

StartChar: G
Encoding: 71 71 18
GlifName: G_
Width: 3062
Flags: HMW
LayerCount: 2
Fore
SplineSet
2212 1164 m 1
 2736 1164 l 1
 2614 676 l 1
 2430 418 1974 -40 1306 -40 c 0
 662 -40 222 360 222 1044 c 0
 222 2178 1082 3112 2044 3112 c 0
 2544 3112 2908 2794 2868 2208 c 1
 2850 2208 l 1
 2890 2782 2528 3080 2110 3080 c 0
 1250 3080 762 1724 762 798 c 0
 762 380 876 -24 1278 -24 c 0
 1728 -24 1966 390 2044 512 c 1
 2212 1164 l 1
1836 1176 m 1
 3022 1176 l 1
 3022 1160 l 1
 1836 1160 l 1
 1836 1176 l 1
3052 3072 m 1
 3068 3072 l 1
 2868 2208 l 1
 2850 2208 l 1
 2860 2326 l 1
 2856 2466 2802 2668 2712 2794 c 1
 3052 3072 l 1
EndSplineSet
EndChar

StartChar: H
Encoding: 72 72 19
GlifName: H_
Width: 3038
Flags: HMW
LayerCount: 2
Fore
SplineSet
1560 16 m 1
 2756 16 l 1
 2756 0 l 1
 1560 0 l 1
 1560 16 l 1
2236 3072 m 1
 3432 3072 l 1
 3432 3056 l 1
 2236 3056 l 1
 2236 3072 l 1
2596 3072 m 1
 3084 3072 l 1
 2388 0 l 1
 1900 0 l 1
 2596 3072 l 1
-168 16 m 1
 1028 16 l 1
 1028 0 l 1
 -168 0 l 1
 -168 16 l 1
508 3072 m 1
 1704 3072 l 1
 1704 3056 l 1
 508 3056 l 1
 508 3072 l 1
876 3072 m 1
 1364 3072 l 1
 668 0 l 1
 180 0 l 1
 876 3072 l 1
864 1524 m 1
 2338 1524 l 1
 2338 1508 l 1
 864 1508 l 1
 864 1524 l 1
EndSplineSet
EndChar

StartChar: I
Encoding: 73 73 20
GlifName: I_
Width: 1522
Flags: HMW
LayerCount: 2
Fore
SplineSet
-168 16 m 1
 1242 16 l 1
 1242 0 l 1
 -168 0 l 1
 -168 16 l 1
508 3072 m 1
 1916 3072 l 1
 1916 3056 l 1
 508 3056 l 1
 508 3072 l 1
978 3072 m 1
 1466 3072 l 1
 770 0 l 1
 282 0 l 1
 978 3072 l 1
EndSplineSet
EndChar

StartChar: J
Encoding: 74 74 21
GlifName: J_
Width: 1888
Flags: HMW
LayerCount: 2
Fore
SplineSet
832 3072 m 1
 2282 3072 l 1
 2282 3056 l 1
 832 3056 l 1
 832 3072 l 1
-90 320 m 1
 -74 136 94 -102 364 -102 c 0
 614 -102 732 204 864 778 c 2
 1384 3072 l 1
 1872 3072 l 1
 1336 692 l 1
 1132 364 836 -122 390 -122 c 0
 66 -122 -126 142 -126 380 c 0
 -126 568 0 696 164 696 c 0
 300 696 442 598 442 406 c 0
 442 226 304 118 164 118 c 0
 38 118 -62 206 -90 320 c 1
EndSplineSet
Substitution2: "'ss02' Style Set 2 lookup 4-1" J.alt
EndChar

StartChar: K
Encoding: 75 75 22
GlifName: K_
Width: 2890
Flags: HMW
LayerCount: 2
Fore
SplineSet
-168 16 m 1
 1028 16 l 1
 1028 0 l 1
 -168 0 l 1
 -168 16 l 1
508 3072 m 1
 1720 3072 l 1
 1720 3056 l 1
 508 3056 l 1
 508 3072 l 1
876 3072 m 1
 1364 3072 l 1
 668 0 l 1
 180 0 l 1
 876 3072 l 1
606 888 m 1
 574 888 l 1
 2716 3068 l 1
 2748 3068 l 1
 606 888 l 1
1286 16 m 1
 2634 16 l 1
 2634 0 l 1
 1286 0 l 1
 1286 16 l 1
3142 3056 m 1
 2158 3056 l 1
 2158 3072 l 1
 3142 3072 l 1
 3142 3056 l 1
2286 0 m 1
 1748 0 l 1
 1232 1552 l 1
 1622 1926 l 1
 2286 0 l 1
EndSplineSet
EndChar

StartChar: L
Encoding: 76 76 23
GlifName: L_
Width: 2374
Flags: HMW
LayerCount: 2
Fore
SplineSet
872 3072 m 1
 1360 3072 l 1
 648 0 l 1
 160 0 l 1
 872 3072 l 1
504 3072 m 1
 1728 3072 l 1
 1728 3056 l 1
 504 3056 l 1
 504 3072 l 1
2040 0 m 1
 -188 0 l 1
 -188 16 l 1
 1208 16 l 2
 1852 16 2092 402 2236 922 c 1
 2252 922 l 1
 2040 0 l 1
EndSplineSet
EndChar

StartChar: M
Encoding: 77 77 24
GlifName: M_
Width: 3510
Flags: HMW
LayerCount: 2
Fore
SplineSet
2126 16 m 1
 3228 16 l 1
 3228 0 l 1
 2126 0 l 1
 2126 16 l 1
3544 3056 m 1
 2900 0 l 1
 2412 0 l 1
 3068 3072 l 1
 3802 3072 l 1
 3802 3056 l 1
 3544 3056 l 1
1708 672 m 1
 3060 3072 l 1
 3080 3072 l 1
 1332 -40 l 1
 1310 -40 l 1
 828 3072 l 1
 1318 3072 l 1
 1708 672 l 1
820 3056 m 1
 508 3056 l 1
 508 3072 l 1
 844 3072 l 1
 196 0 l 1
 176 0 l 1
 820 3056 l 1
-106 16 m 1
 528 16 l 1
 528 0 l 1
 -106 0 l 1
 -106 16 l 1
EndSplineSet
EndChar

StartChar: N
Encoding: 78 78 25
GlifName: N_
Width: 2968
Flags: HMW
LayerCount: 2
Fore
SplineSet
2940 3072 m 1
 2958 3072 l 1
 2248 -40 l 1
 2216 -40 l 1
 918 3072 l 1
 1504 3072 l 1
 2428 806 l 1
 2940 3072 l 1
2450 3072 m 1
 3362 3072 l 1
 3362 3056 l 1
 2450 3056 l 1
 2450 3072 l 1
-148 16 m 1
 762 16 l 1
 762 0 l 1
 -148 0 l 1
 -148 16 l 1
922 3056 m 1
 508 3056 l 1
 508 3072 l 1
 946 3072 l 1
 254 0 l 1
 242 0 l 1
 922 3056 l 1
EndSplineSet
EndChar

StartChar: O
Encoding: 79 79 26
GlifName: O_
Width: 2984
Flags: HMW
LayerCount: 2
Fore
SplineSet
1258 -40 m 0
 606 -40 222 376 222 1044 c 0
 222 2194 1082 3112 1954 3112 c 0
 2564 3112 2990 2696 2990 2028 c 0
 2990 878 2172 -40 1258 -40 c 0
1954 3096 m 0
 1250 3096 754 1700 754 750 c 0
 754 324 872 -24 1258 -24 c 0
 2004 -24 2458 1372 2458 2322 c 0
 2458 2666 2340 3096 1954 3096 c 0
EndSplineSet
EndChar

StartChar: P
Encoding: 80 80 27
GlifName: P_
Width: 2584
Flags: HMW
LayerCount: 2
Fore
SplineSet
876 3072 m 1
 1364 3072 l 1
 648 0 l 1
 160 0 l 1
 876 3072 l 1
-168 16 m 1
 1056 16 l 1
 1056 0 l 1
 -168 0 l 1
 -168 16 l 1
1364 1384 m 2
 914 1384 l 1
 914 1400 l 1
 1324 1400 l 2
 1864 1400 2158 2004 2158 2450 c 0
 2158 2692 2084 3056 1732 3056 c 2
 508 3056 l 1
 508 3072 l 1
 1774 3072 l 2
 2310 3072 2708 2876 2708 2384 c 0
 2708 1770 2188 1384 1364 1384 c 2
EndSplineSet
EndChar

StartChar: Q
Encoding: 81 81 28
GlifName: Q_
Width: 2960
Flags: HMW
LayerCount: 2
Fore
SplineSet
1826 -1008 m 1
 1826 -1024 l 1
 986 -1024 780 -700 984 8 c 1
 1164 -46 1364 -42 1552 8 c 1
 1348 -738 1478 -1008 1826 -1008 c 1
1954 3096 m 0
 1250 3096 754 1700 754 750 c 0
 754 332 872 -24 1258 -24 c 0
 2004 -24 2458 1372 2458 2322 c 0
 2458 2658 2340 3096 1954 3096 c 0
1258 -40 m 0
 606 -40 222 376 222 1044 c 0
 222 2194 1082 3112 1954 3112 c 0
 2564 3112 2990 2696 2990 2028 c 0
 2990 878 2172 -40 1258 -40 c 0
EndSplineSet
EndChar

StartChar: R
Encoding: 82 82 29
GlifName: R_
Width: 3010
Flags: HMW
LayerCount: 2
Fore
SplineSet
2732 50 m 1
 2584 -8 2486 -24 2322 -24 c 0
 1294 -24 2396 1568 1388 1568 c 2
 974 1568 l 1
 974 1576 l 1
 1512 1576 l 2
 2958 1576 2032 20 2520 20 c 0
 2598 20 2662 42 2724 66 c 1
 2732 50 l 1
958 3072 m 1
 1446 3072 l 1
 730 0 l 1
 242 0 l 1
 958 3072 l 1
-160 16 m 1
 1180 16 l 1
 1180 0 l 1
 -160 0 l 1
 -160 16 l 1
1536 1568 m 2
 974 1568 l 1
 974 1586 l 1
 1496 1586 l 2
 2062 1586 2314 2134 2314 2524 c 0
 2314 2724 2268 3056 1888 3056 c 2
 516 3056 l 1
 516 3072 l 1
 1946 3072 l 2
 2482 3072 2850 2908 2850 2458 c 0
 2850 1884 2360 1568 1536 1568 c 2
EndSplineSet
Substitution2: "'ss01' Style Set 1 lookup 2-1" R.alt
EndChar

StartChar: S
Encoding: 83 83 30
GlifName: S_
Width: 2334
Flags: HMW
LayerCount: 2
Fore
SplineSet
2274 2364 m 1
 2250 2508 2200 2674 2102 2826 c 1
 2466 3112 l 1
 2482 3112 l 1
 2290 2240 l 1
 2274 2240 l 1
 2274 2364 l 1
2290 2240 m 1
 2274 2240 l 1
 2250 2760 1996 3092 1496 3092 c 0
 1192 3092 872 2880 872 2540 c 0
 872 1786 2134 2032 2134 950 c 0
 2134 376 1602 -62 992 -62 c 0
 354 -62 154 356 118 848 c 1
 136 848 l 1
 168 376 368 -40 978 -40 c 0
 1404 -40 1728 224 1728 614 c 0
 1728 1466 472 1232 472 2158 c 0
 472 2788 1076 3112 1482 3112 c 0
 2006 3112 2266 2776 2290 2240 c 1
-70 -40 m 1
 -86 -40 l 1
 118 848 l 1
 136 848 l 1
 152 668 l 1
 184 516 238 364 304 266 c 1
 -70 -40 l 1
EndSplineSet
EndChar

StartChar: T
Encoding: 84 84 31
GlifName: T_
Width: 2628
Flags: HMW
LayerCount: 2
Fore
SplineSet
386 16 m 1
 1774 16 l 1
 1774 0 l 1
 386 0 l 1
 386 16 l 1
1536 3072 m 1
 2024 3072 l 1
 1310 0 l 1
 824 0 l 1
 1536 3072 l 1
2356 3056 m 2
 1164 3056 l 2
 702 3056 464 2642 320 2126 c 1
 304 2126 l 1
 520 3072 l 1
 3040 3072 l 1
 2822 2126 l 1
 2806 2126 l 1
 2900 2646 2818 3056 2356 3056 c 2
EndSplineSet
EndChar

StartChar: U
Encoding: 85 85 32
GlifName: U_
Width: 2842
Flags: HMW
LayerCount: 2
Fore
SplineSet
2438 3072 m 1
 3236 3072 l 1
 3236 3056 l 1
 2438 3056 l 1
 2438 3072 l 1
504 3072 m 1
 1770 3072 l 1
 1770 3056 l 1
 504 3056 l 1
 504 3072 l 1
2860 3072 m 1
 2876 3072 l 1
 2384 942 l 2
 2236 298 1934 -62 1286 -62 c 0
 618 -62 246 270 402 942 c 2
 892 3072 l 1
 1380 3072 l 1
 888 984 l 2
 770 472 824 -28 1356 -28 c 0
 1930 -28 2228 320 2368 942 c 2
 2860 3072 l 1
EndSplineSet
EndChar

StartChar: V
Encoding: 86 86 33
GlifName: V_
Width: 3022
Flags: HMW
LayerCount: 2
Fore
SplineSet
3436 3056 m 1
 2536 3056 l 1
 2536 3072 l 1
 3436 3072 l 1
 3436 3056 l 1
1774 3056 m 1
 488 3056 l 1
 488 3072 l 1
 1774 3072 l 1
 1774 3056 l 1
1560 512 m 1
 3040 3072 l 1
 3060 3072 l 1
 1262 -50 l 1
 1164 -50 l 1
 774 3072 l 1
 1302 3072 l 1
 1560 512 l 1
EndSplineSet
EndChar

StartChar: W
Encoding: 87 87 34
GlifName: W_
Width: 4156
Flags: HMW
LayerCount: 2
Fore
SplineSet
1594 614 m 1
 2252 1758 l 1
 2270 1758 l 1
 1232 -40 l 1
 1146 -40 l 1
 848 3072 l 1
 1364 3072 l 1
 1594 614 l 1
2458 1708 m 1
 2442 1708 l 1
 3232 3072 l 1
 3248 3072 l 1
 2458 1708 l 1
4572 3056 m 1
 3784 3056 l 1
 3784 3072 l 1
 4572 3072 l 1
 4572 3056 l 1
3596 3056 m 1
 488 3056 l 1
 488 3072 l 1
 3596 3072 l 1
 3596 3056 l 1
2736 614 m 1
 4162 3072 l 1
 4178 3072 l 1
 2376 -40 l 1
 2314 -40 l 1
 2016 3072 l 1
 2506 3072 l 1
 2736 614 l 1
EndSplineSet
EndChar

StartChar: X
Encoding: 88 88 35
GlifName: X_
Width: 3050
Flags: HMW
LayerCount: 2
Fore
SplineSet
1650 1544 m 1
 1626 1544 l 1
 2846 3064 l 1
 2876 3064 l 1
 1650 1544 l 1
254 0 m 1
 226 0 l 1
 1626 1708 l 1
 1650 1708 l 1
 254 0 l 1
1552 16 m 1
 2798 16 l 1
 2798 0 l 1
 1552 0 l 1
 1552 16 l 1
-208 16 m 1
 774 16 l 1
 774 0 l 1
 -208 0 l 1
 -208 16 l 1
1876 3056 m 1
 630 3056 l 1
 630 3072 l 1
 1876 3072 l 1
 1876 3056 l 1
3302 3056 m 1
 2400 3056 l 1
 2400 3072 l 1
 3302 3072 l 1
 3302 3056 l 1
2514 0 m 1
 1946 0 l 1
 918 3072 l 1
 1470 3072 l 1
 2514 0 l 1
EndSplineSet
EndChar

StartChar: Y
Encoding: 89 89 36
GlifName: Y_
Width: 3010
Flags: HMW
LayerCount: 2
Fore
SplineSet
3424 3056 m 1
 2564 3056 l 1
 2564 3072 l 1
 3424 3072 l 1
 3424 3056 l 1
1766 3056 m 1
 488 3056 l 1
 488 3072 l 1
 1766 3072 l 1
 1766 3056 l 1
656 16 m 1
 1922 16 l 1
 1922 0 l 1
 656 0 l 1
 656 16 l 1
1848 1568 m 1
 3052 3064 l 1
 3076 3064 l 1
 1856 1540 l 1
 1512 0 l 1
 1024 0 l 1
 1372 1544 l 1
 774 3072 l 1
 1324 3072 l 1
 1848 1568 l 1
EndSplineSet
EndChar

StartChar: Z
Encoding: 90 90 37
GlifName: Z_
Width: 2338
Flags: HMW
LayerCount: 2
Fore
SplineSet
1998 3056 m 1
 1332 3056 l 2
 770 3056 550 2790 414 2352 c 1
 398 2352 l 1
 566 3072 l 1
 2610 3072 l 1
 2610 3056 l 1
 402 16 l 1
 1192 16 l 2
 1754 16 1966 286 2126 802 c 1
 2142 802 l 1
 1958 0 l 1
 -208 0 l 1
 -208 16 l 1
 1998 3056 l 1
EndSplineSet
EndChar

StartChar: a
Encoding: 97 97 38
GlifName: a
Width: 2522
VWidth: 4730
Flags: HMW
LayerCount: 2
Fore
SplineSet
1544 1286 m 0
 1544 1568 1458 1822 1270 1822 c 0
 926 1822 574 1096 574 548 c 0
 574 240 664 36 848 36 c 0
 1262 36 1544 832 1544 1286 c 0
1560 1286 m 0
 1560 844 1294 -40 716 -40 c 0
 434 -40 66 124 66 656 c 0
 66 1476 708 1926 1122 1926 c 0
 1434 1926 1560 1662 1560 1286 c 0
2446 668 m 1
 2290 258 2032 -40 1676 -40 c 0
 1458 -40 1360 62 1360 266 c 0
 1360 286 1364 336 1368 364 c 2
 1458 742 l 1
 1532 1032 l 1
 1552 1188 l 1
 1720 1884 l 1
 2166 1884 l 1
 1748 172 l 2
 1744 148 1740 118 1740 98 c 0
 1740 52 1760 20 1814 20 c 0
 2044 20 2292 312 2424 676 c 1
 2446 668 l 1
EndSplineSet
EndChar

StartChar: b
Encoding: 98 98 39
GlifName: b
Width: 2366
VWidth: 4730
Flags: HMW
LayerCount: 2
Fore
SplineSet
856 3056 m 1
 540 3056 l 1
 540 3072 l 1
 1310 3072 l 1
 730 532 l 1
 730 254 794 -24 1012 -24 c 0
 1398 -24 1740 808 1740 1356 c 0
 1740 1626 1650 1840 1466 1840 c 0
 1188 1840 930 1438 820 942 c 1
 802 942 l 1
 958 1646 1274 1922 1606 1922 c 0
 1880 1922 2248 1794 2248 1270 c 0
 2248 410 1638 -40 1004 -40 c 0
 624 -40 392 202 270 492 c 1
 856 3056 l 1
EndSplineSet
EndChar

StartChar: c
Encoding: 99 99 40
GlifName: c
Width: 1948
VWidth: 4730
Flags: HMW
LayerCount: 2
Fore
SplineSet
1848 1486 m 1
 1824 1712 1634 1896 1318 1896 c 0
 814 1896 574 1074 574 566 c 0
 574 222 632 0 836 0 c 0
 1114 0 1464 184 1672 586 c 1
 1692 586 l 1
 1488 188 1124 -40 734 -40 c 0
 426 -40 66 124 66 648 c 0
 66 1426 676 1926 1246 1926 c 0
 1622 1926 1880 1730 1880 1426 c 0
 1880 1208 1742 1102 1594 1102 c 0
 1468 1102 1318 1184 1318 1364 c 0
 1318 1532 1468 1626 1594 1626 c 0
 1746 1626 1820 1568 1848 1486 c 1
EndSplineSet
EndChar

StartChar: d
Encoding: 100 100 41
GlifName: d
Width: 2538
VWidth: 4730
Flags: HMW
LayerCount: 2
Fore
SplineSet
2462 668 m 1
 2306 258 2048 -40 1692 -40 c 0
 1474 -40 1364 52 1364 274 c 0
 1364 294 1368 340 1372 364 c 2
 1462 746 l 1
 1532 1036 l 1
 1552 1184 l 1
 1974 3056 l 1
 1594 3056 l 1
 1594 3072 l 1
 2424 3072 l 1
 1770 172 l 2
 1766 148 1762 118 1762 98 c 0
 1762 52 1782 16 1836 16 c 0
 2062 16 2314 312 2446 676 c 1
 2462 668 l 1
1544 1286 m 0
 1544 1568 1458 1822 1270 1822 c 0
 926 1822 574 1096 574 548 c 0
 574 240 664 36 848 36 c 0
 1262 36 1544 832 1544 1286 c 0
1560 1286 m 0
 1560 844 1294 -40 716 -40 c 0
 434 -40 66 124 66 656 c 0
 66 1476 708 1926 1122 1926 c 0
 1434 1926 1560 1662 1560 1286 c 0
EndSplineSet
EndChar

StartChar: e
Encoding: 101 101 42
GlifName: e
Width: 1974
VWidth: 4730
Flags: HMW
LayerCount: 2
Fore
SplineSet
574 532 m 0
 574 254 618 -4 844 -4 c 0
 1220 -4 1536 286 1704 586 c 1
 1724 586 l 1
 1556 270 1212 -40 758 -40 c 0
 402 -40 66 156 66 648 c 0
 66 1430 696 1926 1258 1926 c 0
 1644 1926 1916 1810 1916 1516 c 0
 1916 910 958 888 504 888 c 1
 504 902 l 1
 894 902 1466 990 1466 1548 c 0
 1466 1724 1430 1908 1294 1908 c 0
 962 1908 574 1188 574 532 c 0
EndSplineSet
EndChar

StartChar: f
Encoding: 102 102 43
GlifName: f
Width: 1502
VWidth: 4730
Flags: HMW
LayerCount: 2
Fore
SplineSet
246 1884 m 1
 1630 1884 l 1
 1630 1868 l 1
 246 1868 l 1
 246 1884 l 1
2118 2782 m 1
 2090 2922 1942 3096 1668 3096 c 0
 1382 3096 1188 2712 1098 2212 c 2
 688 -50 l 2
 586 -620 196 -1064 -336 -1064 c 0
 -692 -1064 -852 -822 -852 -634 c 0
 -852 -450 -734 -348 -586 -348 c 0
 -460 -348 -316 -422 -316 -602 c 0
 -316 -782 -450 -868 -594 -868 c 0
 -688 -868 -788 -812 -812 -734 c 1
 -784 -874 -630 -1048 -356 -1048 c 0
 -70 -1048 132 -664 218 -164 c 2
 626 2098 l 2
 724 2672 1118 3112 1650 3112 c 0
 2006 3112 2166 2870 2166 2682 c 0
 2166 2498 2048 2396 1900 2396 c 0
 1774 2396 1630 2470 1630 2650 c 0
 1630 2830 1764 2916 1908 2916 c 0
 2002 2916 2094 2856 2118 2782 c 1
EndSplineSet
EndChar

StartChar: g
Encoding: 103 103 44
GlifName: g
Width: 2386
VWidth: 4730
Flags: HMW
LayerCount: 2
Fore
SplineSet
544 -58 m 1
 376 -112 254 -336 254 -582 c 0
 254 -828 344 -1044 672 -1044 c 0
 1062 -1044 1572 -836 1572 -390 c 0
 1572 -168 1454 -78 1228 -78 c 0
 1142 -78 902 -78 812 -78 c 0
 444 -78 144 -20 144 234 c 0
 144 546 616 672 902 672 c 1
 902 660 l 1
 766 660 476 614 476 446 c 0
 476 344 676 308 902 308 c 0
 1046 308 1136 312 1250 312 c 0
 1582 312 1758 180 1758 -172 c 0
 1758 -700 1230 -1064 664 -1064 c 0
 192 -1064 -180 -950 -180 -634 c 0
 -180 -228 348 -58 532 -58 c 2
 544 -58 l 1
2478 1598 m 0
 2478 1398 2358 1328 2248 1328 c 0
 2138 1328 2024 1400 2024 1552 c 0
 2024 1674 2126 1766 2252 1766 c 0
 2366 1766 2442 1680 2454 1618 c 1
 2434 1798 2310 1888 2142 1888 c 0
 1970 1888 1716 1738 1544 1414 c 1
 1536 1422 l 1
 1708 1762 1970 1904 2142 1904 c 0
 2364 1904 2478 1758 2478 1598 c 0
892 672 m 0
 1208 672 1380 1240 1380 1560 c 0
 1380 1724 1316 1908 1172 1908 c 0
 856 1908 684 1340 684 1020 c 0
 684 856 748 672 892 672 c 0
888 656 m 0
 532 656 242 800 242 1168 c 0
 242 1618 696 1926 1176 1926 c 0
 1532 1926 1822 1782 1822 1414 c 0
 1822 964 1368 656 888 656 c 0
EndSplineSet
EndChar

StartChar: h
Encoding: 104 104 45
GlifName: h
Width: 2416
VWidth: 4730
Flags: HMW
LayerCount: 2
Fore
SplineSet
1548 1258 m 2
 1654 1574 1668 1876 1496 1876 c 0
 1164 1876 840 1334 692 708 c 1
 676 708 l 1
 828 1334 1130 1926 1602 1926 c 0
 2008 1926 2126 1638 2012 1290 c 2
 1642 160 l 2
 1634 136 1630 106 1630 86 c 0
 1630 40 1654 12 1708 12 c 0
 1946 12 2178 296 2318 672 c 1
 2338 668 l 1
 2182 258 1942 -40 1586 -40 c 0
 1360 -40 1236 66 1236 258 c 0
 1236 320 1250 370 1258 402 c 2
 1548 1258 l 2
782 3056 m 1
 500 3056 l 1
 500 3072 l 1
 1236 3072 l 1
 532 0 l 1
 82 0 l 1
 782 3056 l 1
EndSplineSet
EndChar

StartChar: i
Encoding: 105 105 46
GlifName: i
Width: 1396
VWidth: 4730
Flags: HMW
LayerCount: 2
Fore
SplineSet
634 2826 m 0
 634 2986 762 3112 922 3112 c 0
 1082 3112 1208 2986 1208 2826 c 0
 1208 2666 1082 2540 922 2540 c 0
 762 2540 634 2666 634 2826 c 0
1306 668 m 1
 1150 258 892 -40 536 -40 c 0
 318 -40 208 52 208 274 c 0
 208 294 214 340 218 364 c 2
 566 1868 l 1
 266 1868 l 1
 266 1884 l 1
 1020 1884 l 1
 610 172 l 2
 606 148 602 118 602 98 c 0
 602 52 622 16 676 16 c 0
 910 16 1150 304 1290 676 c 1
 1306 668 l 1
EndSplineSet
EndChar

StartChar: j
Encoding: 106 106 47
GlifName: j
Width: 1130
VWidth: 4730
Flags: HMW
LayerCount: 2
Fore
SplineSet
668 2826 m 0
 668 2986 794 3112 954 3112 c 0
 1114 3112 1242 2986 1242 2826 c 0
 1242 2666 1114 2540 954 2540 c 0
 794 2540 668 2666 668 2826 c 0
-724 -692 m 1
 -696 -864 -522 -1048 -304 -1048 c 0
 72 -1048 74 -410 188 82 c 2
 606 1868 l 1
 222 1868 l 1
 222 1884 l 1
 1044 1884 l 1
 644 -50 l 2
 538 -562 250 -1064 -282 -1064 c 0
 -590 -1064 -762 -798 -762 -622 c 0
 -762 -438 -614 -316 -466 -316 c 0
 -340 -316 -218 -406 -218 -566 c 0
 -218 -734 -352 -832 -504 -832 c 0
 -614 -832 -692 -766 -724 -692 c 1
EndSplineSet
EndChar

StartChar: k
Encoding: 107 107 48
GlifName: k
Width: 2358
VWidth: 4730
Flags: HMW
LayerCount: 2
Fore
SplineSet
2282 668 m 1
 2126 258 1876 -40 1528 -40 c 0
 1310 -40 1196 52 1196 274 c 0
 1196 294 1200 340 1204 364 c 2
 1250 574 l 2
 1304 812 1446 1160 1176 1160 c 0
 918 1160 856 926 820 778 c 1
 802 778 l 1
 884 1138 1054 1188 1246 1188 c 0
 1528 1188 1790 1028 1668 496 c 2
 1576 114 l 2
 1576 106 1572 86 1572 78 c 0
 1572 32 1600 12 1654 12 c 0
 1884 12 2130 312 2266 676 c 1
 2282 668 l 1
770 1324 m 1
 790 1310 l 1
 802 1110 892 1008 1036 1008 c 0
 1220 1008 1304 1216 1410 1478 c 0
 1524 1756 1676 1926 1888 1926 c 0
 2088 1926 2240 1790 2240 1560 c 0
 2240 1368 2120 1282 1994 1282 c 0
 1868 1282 1758 1376 1758 1520 c 0
 1758 1652 1858 1744 1990 1744 c 0
 2116 1744 2188 1668 2212 1594 c 1
 2200 1778 2076 1908 1888 1908 c 0
 1688 1908 1536 1744 1426 1466 c 0
 1316 1188 1228 992 1036 992 c 0
 884 992 770 1112 770 1324 c 1
898 3056 m 1
 532 3056 l 1
 532 3072 l 1
 1352 3072 l 1
 638 0 l 1
 188 0 l 1
 898 3056 l 1
EndSplineSet
EndChar

StartChar: l
Encoding: 108 108 49
GlifName: l
Width: 1338
VWidth: 4730
Flags: HMW
LayerCount: 2
Fore
SplineSet
1266 668 m 1
 1110 258 852 -40 496 -40 c 0
 278 -40 168 52 168 274 c 0
 168 294 172 340 176 364 c 2
 794 3056 l 1
 414 3056 l 1
 414 3072 l 1
 1246 3072 l 1
 570 172 l 2
 566 148 562 118 562 98 c 0
 562 52 580 16 634 16 c 0
 872 16 1118 320 1250 676 c 1
 1266 668 l 1
EndSplineSet
EndChar

StartChar: m
Encoding: 109 109 50
GlifName: m
Width: 3534
VWidth: 4730
Flags: HMW
LayerCount: 2
Fore
SplineSet
2666 1258 m 2
 2772 1574 2802 1868 2630 1868 c 0
 2310 1868 2000 1356 1844 708 c 1
 1826 708 l 1
 1982 1330 2274 1926 2740 1926 c 0
 3146 1926 3248 1638 3134 1290 c 2
 2760 160 l 2
 2752 136 2748 106 2748 86 c 0
 2748 40 2772 8 2826 8 c 0
 3072 8 3304 312 3440 676 c 1
 3458 668 l 1
 3302 258 3060 -40 2704 -40 c 0
 2478 -40 2356 66 2356 258 c 0
 2356 320 2368 370 2376 402 c 2
 2666 1258 l 2
1672 0 m 17
 1220 0 l 1
 1528 1262 l 2
 1606 1586 1662 1868 1490 1868 c 0
 1178 1868 856 1364 704 708 c 1
 688 708 l 1
 840 1326 1130 1926 1602 1926 c 0
 2008 1926 2076 1650 1990 1306 c 2
 1672 0 l 17
532 1868 m 1
 250 1868 l 1
 250 1884 l 1
 988 1884 l 1
 536 0 l 1
 86 0 l 1
 532 1868 l 1
EndSplineSet
EndChar

StartChar: n
Encoding: 110 110 51
GlifName: n
Width: 2436
VWidth: 4730
Flags: HMW
LayerCount: 2
Fore
SplineSet
528 1868 m 1
 246 1868 l 1
 246 1884 l 1
 984 1884 l 1
 532 0 l 1
 82 0 l 1
 528 1868 l 1
1548 1258 m 2
 1654 1574 1672 1876 1500 1876 c 0
 1168 1876 848 1334 700 708 c 1
 684 708 l 1
 840 1334 1130 1926 1602 1926 c 0
 2008 1926 2126 1638 2012 1290 c 2
 1642 160 l 2
 1634 136 1630 106 1630 86 c 0
 1630 40 1654 12 1708 12 c 0
 1946 12 2194 296 2334 672 c 1
 2356 668 l 1
 2200 258 1942 -40 1586 -40 c 0
 1360 -40 1236 66 1236 258 c 0
 1236 320 1246 366 1258 402 c 2
 1548 1258 l 2
EndSplineSet
EndChar

StartChar: o
Encoding: 111 111 52
GlifName: o
Width: 2186
VWidth: 4730
Flags: HMW
LayerCount: 2
Fore
SplineSet
832 -40 m 0
 452 -40 66 140 66 664 c 0
 66 1442 676 1926 1302 1926 c 0
 1682 1926 2068 1744 2068 1220 c 0
 2068 442 1458 -40 832 -40 c 0
832 -20 m 0
 1312 -20 1576 860 1576 1368 c 0
 1576 1688 1498 1904 1302 1904 c 0
 822 1904 558 1024 558 516 c 0
 558 196 636 -20 832 -20 c 0
EndSplineSet
EndChar

StartChar: p
Encoding: 112 112 53
GlifName: p
Width: 2334
VWidth: 4730
Flags: HMW
LayerCount: 2
Fore
SplineSet
746 594 m 0
 746 312 832 58 1020 58 c 0
 1364 58 1728 784 1728 1332 c 0
 1728 1640 1630 1848 1446 1848 c 0
 1032 1848 746 1048 746 594 c 0
730 594 m 0
 730 1036 998 1926 1576 1926 c 0
 1858 1926 2236 1756 2236 1224 c 0
 2236 404 1586 -40 1172 -40 c 0
 860 -40 730 218 730 594 c 0
-386 -1008 m 1
 618 -1008 l 1
 618 -1024 l 1
 -386 -1024 l 1
 -386 -1008 l 1
548 1868 m 1
 258 1868 l 1
 258 1884 l 1
 1004 1884 l 1
 836 1172 l 1
 774 938 l 1
 750 774 l 1
 332 -1024 l 1
 -118 -1024 l 1
 548 1868 l 1
EndSplineSet
EndChar

StartChar: q
Encoding: 113 113 54
GlifName: q
Width: 2296
VWidth: 4730
Flags: HMW
LayerCount: 2
Fore
SplineSet
1766 -1008 m 1
 1766 -1024 l 1
 778 -1024 l 1
 778 -1008 l 1
 1766 -1008 l 1
1478 -1024 m 17
 1044 -1024 l 1
 1454 724 l 1
 1462 744 1528 1028 1532 1052 c 1
 1552 1192 l 1
 1708 1844 l 1
 2158 1926 l 1
 1478 -1024 l 17
1544 1286 m 0
 1544 1568 1458 1822 1270 1822 c 0
 926 1822 574 1096 574 548 c 0
 574 240 664 36 848 36 c 0
 1262 36 1544 832 1544 1286 c 0
1560 1286 m 0
 1560 844 1294 -40 716 -40 c 0
 434 -40 66 124 66 656 c 0
 66 1476 708 1926 1122 1926 c 0
 1434 1926 1560 1662 1560 1286 c 0
EndSplineSet
EndChar

StartChar: r
Encoding: 114 114 55
GlifName: r
Width: 1748
VWidth: 4730
Flags: HMW
LayerCount: 2
Fore
SplineSet
1856 1552 m 0
 1856 1392 1756 1262 1576 1262 c 0
 1416 1262 1294 1356 1294 1528 c 0
 1294 1688 1420 1806 1572 1806 c 0
 1686 1806 1774 1732 1810 1642 c 1
 1774 1794 1622 1908 1446 1908 c 0
 1004 1908 814 1110 716 708 c 1
 700 708 l 1
 806 1184 1004 1926 1446 1926 c 0
 1650 1926 1856 1778 1856 1552 c 0
552 1868 m 1
 250 1868 l 1
 250 1884 l 1
 988 1884 l 1
 558 0 l 1
 106 0 l 1
 552 1868 l 1
EndSplineSet
EndChar

StartChar: s
Encoding: 115 115 56
GlifName: s
Width: 1702
VWidth: 4730
Flags: HMW
LayerCount: 2
Fore
SplineSet
1486 1582 m 1
 1454 1762 1238 1904 938 1904 c 0
 712 1904 548 1774 548 1602 c 0
 548 1172 1446 1142 1446 598 c 0
 1446 212 1070 -50 648 -50 c 0
 194 -50 -16 212 -16 438 c 0
 -16 614 122 708 254 708 c 0
 364 708 504 634 504 462 c 0
 504 310 380 222 254 222 c 0
 106 222 28 316 12 394 c 1
 32 182 246 -32 648 -32 c 0
 934 -32 1114 144 1114 340 c 0
 1114 750 230 726 230 1324 c 0
 230 1730 614 1922 938 1922 c 0
 1290 1922 1524 1724 1524 1524 c 0
 1524 1356 1418 1278 1286 1278 c 0
 1176 1278 1052 1352 1052 1504 c 0
 1052 1636 1164 1724 1274 1724 c 0
 1396 1724 1458 1664 1486 1582 c 1
EndSplineSet
EndChar

StartChar: t
Encoding: 116 116 57
GlifName: t
Width: 1372
VWidth: 4730
Flags: HMW
LayerCount: 2
Fore
SplineSet
168 1884 m 1
 1356 1884 l 1
 1356 1868 l 1
 168 1868 l 1
 168 1884 l 1
1290 668 m 1
 1134 258 876 -40 520 -40 c 0
 302 -40 188 52 188 274 c 0
 188 294 192 340 196 364 c 2
 614 2294 l 1
 1060 2294 l 1
 598 172 l 2
 594 148 590 118 590 98 c 0
 590 52 610 20 664 20 c 0
 906 20 1142 320 1274 676 c 1
 1290 668 l 1
EndSplineSet
EndChar

StartChar: u
Encoding: 117 117 58
GlifName: u
Width: 2564
VWidth: 4730
Flags: HMW
LayerCount: 2
Fore
SplineSet
1004 1884 m 1
 692 566 l 2
 618 242 618 24 794 24 c 0
 1080 24 1422 516 1582 1176 c 1
 1594 1176 l 1
 1430 542 1130 -40 664 -40 c 0
 266 -40 180 242 254 578 c 2
 544 1868 l 1
 258 1868 l 1
 258 1884 l 1
 1004 1884 l 1
2486 668 m 1
 2330 258 2072 -40 1716 -40 c 0
 1498 -40 1388 52 1388 274 c 0
 1388 294 1392 340 1396 364 c 2
 1736 1884 l 1
 2192 1884 l 1
 1790 172 l 2
 1786 148 1782 118 1782 98 c 0
 1782 52 1802 20 1856 20 c 0
 2110 20 2344 332 2470 676 c 1
 2486 668 l 1
EndSplineSet
EndChar

StartChar: v
Encoding: 118 118 59
GlifName: v
Width: 2276
VWidth: 4730
Flags: HMW
LayerCount: 2
Fore
SplineSet
978 524 m 2
 924 200 876 4 1106 4 c 0
 1524 4 2200 762 2200 1410 c 0
 2200 1558 2170 1648 2146 1688 c 1
 2142 1586 2056 1372 1856 1372 c 0
 1656 1372 1568 1520 1568 1646 c 0
 1568 1794 1688 1922 1864 1922 c 0
 2130 1922 2220 1668 2220 1410 c 0
 2220 762 1548 -40 1012 -40 c 0
 590 -40 462 210 528 562 c 2
 738 1712 l 2
 742 1736 746 1766 746 1786 c 0
 746 1832 722 1864 664 1864 c 0
 410 1864 184 1536 62 1208 c 1
 46 1216 l 1
 210 1626 444 1926 816 1926 c 0
 1042 1926 1150 1818 1150 1634 c 0
 1150 1572 1138 1526 1134 1490 c 2
 978 524 l 2
EndSplineSet
Substitution2: "'ss04' Style Set 4 lookup 5-1" v.alt
EndChar

StartChar: w
Encoding: 119 119 60
GlifName: w
Width: 3436
VWidth: 4730
Flags: HMW
LayerCount: 2
Fore
SplineSet
816 570 m 2
 710 254 730 16 918 16 c 0
 1258 16 1588 554 1740 1176 c 1
 1754 1176 l 1
 1598 570 1302 -40 798 -40 c 0
 384 -40 262 234 372 578 c 2
 742 1712 l 2
 750 1736 754 1766 754 1786 c 0
 754 1832 730 1864 676 1864 c 0
 414 1864 202 1560 62 1208 c 1
 46 1216 l 1
 210 1626 444 1926 816 1926 c 0
 1034 1926 1150 1822 1150 1630 c 0
 1150 1568 1138 1518 1130 1490 c 2
 816 570 l 2
1908 1884 m 1
 2360 1884 l 1
 2080 716 l 2
 1998 372 2016 0 2352 0 c 0
 2982 0 3358 906 3358 1410 c 0
 3358 1524 3338 1618 3322 1654 c 1
 3314 1486 3186 1372 3006 1372 c 0
 2818 1372 2724 1520 2724 1646 c 0
 2724 1794 2846 1922 3018 1922 c 0
 3268 1922 3380 1684 3380 1410 c 0
 3380 960 3044 -40 2270 -40 c 0
 1898 -40 1500 176 1680 934 c 1
 1908 1884 l 1
EndSplineSet
EndChar

StartChar: x
Encoding: 120 120 61
GlifName: x
Width: 2268
VWidth: 4730
Flags: HMW
LayerCount: 2
Fore
SplineSet
1164 992 m 1
 1410 1394 1614 1926 1962 1926 c 0
 2228 1926 2326 1730 2326 1582 c 0
 2326 1418 2228 1302 2056 1302 c 0
 1876 1302 1798 1450 1798 1568 c 0
 1798 1694 1904 1826 2056 1826 c 0
 2166 1826 2246 1770 2278 1676 c 1
 2254 1790 2154 1908 1966 1908 c 0
 1626 1908 1426 1376 1184 978 c 1
 1164 992 l 1
1164 1086 m 1
 844 554 598 -40 250 -40 c 0
 -16 -40 -114 156 -114 304 c 0
 -114 468 -16 582 156 582 c 0
 336 582 414 434 414 316 c 0
 414 190 308 58 148 58 c 0
 26 58 -58 144 -82 234 c 1
 -46 62 78 -24 242 -24 c 0
 578 -24 834 578 1146 1098 c 1
 1164 1086 l 1
2102 446 m 1
 1966 86 1774 -40 1528 -40 c 0
 1262 -40 1136 104 1070 316 c 0
 968 664 766 1468 660 1762 c 0
 644 1808 618 1860 544 1860 c 0
 418 1860 274 1688 180 1426 c 1
 168 1430 l 1
 304 1790 468 1934 754 1934 c 0
 1020 1934 1130 1788 1196 1576 c 0
 1302 1212 1458 538 1602 140 c 0
 1618 94 1666 40 1724 40 c 0
 1826 40 1978 168 2084 450 c 1
 2102 446 l 1
EndSplineSet
EndChar

StartChar: y
Encoding: 121 121 62
GlifName: y
Width: 2412
VWidth: 4730
Flags: HMW
LayerCount: 2
Fore
SplineSet
1364 -308 m 1
 1048 236 744 1460 634 1754 c 0
 618 1800 594 1852 520 1852 c 0
 394 1852 230 1656 152 1414 c 1
 132 1422 l 1
 268 1790 454 1926 724 1926 c 0
 978 1926 1102 1776 1164 1564 c 0
 1274 1196 1422 512 1692 110 c 1
 1660 70 1400 -276 1364 -308 c 1
328 -1064 m 0
 20 -1064 -160 -852 -160 -594 c 0
 -160 -434 -46 -282 126 -282 c 0
 252 -282 390 -364 390 -536 c 0
 390 -688 280 -790 140 -790 c 0
 -4 -790 -112 -712 -136 -610 c 1
 -136 -848 42 -1048 328 -1048 c 0
 1078 -1048 2342 966 2342 1486 c 0
 2342 1592 2314 1682 2278 1732 c 1
 2318 1494 2152 1392 2016 1392 c 0
 1828 1392 1724 1540 1724 1658 c 0
 1724 1798 1840 1926 2016 1926 c 0
 2274 1926 2364 1674 2364 1490 c 0
 2364 958 1094 -1064 328 -1064 c 0
EndSplineSet
EndChar

StartChar: z
Encoding: 122 122 63
GlifName: z
Width: 1686
VWidth: 4730
Flags: HMW
LayerCount: 2
Fore
SplineSet
98 1074 m 1
 290 1892 l 1
 512 1770 758 1732 970 1732 c 0
 1182 1732 1544 1758 1684 1884 c 1
 1700 1868 l 1
 1364 1586 1016 1340 712 1340 c 0
 532 1340 328 1410 222 1504 c 1
 114 1074 l 1
 98 1074 l 1
-122 -12 m 1
 -168 -28 l 1
 1668 1860 l 1
 1700 1868 l 1
 -122 -12 l 1
1618 672 m 1
 1590 570 1504 484 1372 484 c 0
 1254 484 1134 580 1134 720 c 0
 1134 880 1262 962 1380 962 c 0
 1520 962 1638 876 1638 692 c 0
 1638 470 1398 -40 1012 -40 c 0
 746 -40 634 160 364 160 c 0
 168 160 -16 92 -148 -40 c 1
 -164 -28 l 1
 122 218 456 454 742 454 c 0
 988 454 1048 254 1310 254 c 0
 1510 254 1606 520 1618 672 c 1
EndSplineSet
EndChar

StartChar: comma
Encoding: 44 44 65
GlifName: comma
Width: 978
Flags: HMW
LayerCount: 2
Fore
SplineSet
66 242 m 0
 66 402 210 540 390 540 c 0
 574 540 716 422 716 172 c 0
 716 -254 270 -638 -148 -638 c 1
 -148 -622 l 1
 232 -622 712 -250 688 212 c 1
 672 72 548 -40 364 -40 c 0
 164 -40 66 90 66 242 c 0
EndSplineSet
EndChar

StartChar: exclam
Encoding: 33 33 67
GlifName: exclam
Width: 1404
Flags: HMW
LayerCount: 2
Fore
SplineSet
1442 2798 m 0
 1376 2348 934 1556 766 934 c 1
 750 934 l 1
 872 1548 852 2134 852 2650 c 0
 852 2904 958 3104 1176 3104 c 0
 1344 3104 1466 2974 1442 2798 c 0
300 250 m 0
 300 414 426 540 590 540 c 0
 754 540 880 414 880 250 c 0
 880 86 754 -40 590 -40 c 0
 426 -40 300 86 300 250 c 0
EndSplineSet
EndChar

StartChar: quotesingle
Encoding: 39 39 70
GlifName: quotesingle
Width: 908
Flags: HMW
LayerCount: 2
Fore
SplineSet
1082 2782 m 0
 1004 2474 766 2352 644 1942 c 1
 626 1942 l 1
 728 2318 620 2444 574 2752 c 24
 570 2780 570 2806 570 2830 c 0
 570 3006 696 3112 848 3112 c 0
 992 3112 1094 3008 1094 2872 c 0
 1094 2844 1090 2810 1082 2782 c 0
EndSplineSet
EndChar

StartChar: question
Encoding: 63 63 75
GlifName: question
Width: 2310
Flags: HMW
LayerCount: 2
Fore
SplineSet
1188 1418 m 1
 1082 914 l 1
 1064 914 l 1
 1176 1430 l 1
 1656 1556 1990 2044 1990 2532 c 0
 1990 2818 1914 3092 1582 3092 c 0
 1098 3092 740 2748 716 2474 c 1
 740 2552 828 2638 954 2638 c 0
 1090 2638 1220 2540 1220 2380 c 0
 1220 2200 1072 2110 946 2110 c 0
 790 2110 680 2220 680 2404 c 0
 680 2740 1082 3112 1622 3112 c 0
 2076 3112 2494 2916 2494 2424 c 0
 2494 1830 1822 1450 1188 1418 c 1
EndSplineSet
Refer: 1 46 N 1 0 0 1 610 0 2
EndChar

StartChar: parenleft
Encoding: 40 40 76
GlifName: parenleft
Width: 1498
Flags: HMW
LayerCount: 2
Fore
SplineSet
1138 -680 m 1
 1130 -696 l 1
 668 -492 340 50 340 758 c 0
 340 1958 1208 2948 1998 3276 c 1
 2008 3260 l 1
 1378 2900 786 1510 786 536 c 0
 786 -120 884 -426 1138 -680 c 1
EndSplineSet
EndChar

StartChar: asterisk
Encoding: 42 42 78
GlifName: asterisk
Width: 2600
VWidth: 4730
Flags: HMW
LayerCount: 2
Fore
SplineSet
1074 2720 m 0
 1320 2528 1172 2294 1552 2076 c 1
 1540 2060 l 1
 1150 2286 1072 2134 786 2252 c 0
 610 2330 532 2510 618 2658 c 0
 708 2818 914 2826 1074 2720 c 0
614 1852 m 0
 904 1954 1150 1850 1540 2076 c 1
 1552 2060 l 1
 1162 1834 1086 1626 840 1430 c 0
 688 1320 500 1290 410 1450 c 0
 324 1598 426 1786 614 1852 c 0
1146 1258 m 0
 1232 1566 1478 1686 1540 2072 c 1
 1556 2072 l 1
 1474 1606 1646 1558 1646 1250 c 0
 1646 1050 1528 902 1360 902 c 0
 1200 902 1084 1040 1146 1258 c 0
2032 1434 m 0
 1786 1626 1920 1842 1540 2060 c 1
 1552 2076 l 1
 1942 1850 2024 2010 2310 1892 c 0
 2486 1814 2564 1634 2478 1486 c 0
 2388 1330 2184 1332 2032 1434 c 0
2482 2294 m 0
 2192 2192 1942 2286 1552 2060 c 1
 1540 2076 l 1
 1930 2302 2010 2520 2256 2716 c 0
 2408 2826 2602 2856 2692 2696 c 0
 2778 2548 2670 2360 2482 2294 c 0
1950 2888 m 0
 1868 2580 1618 2458 1556 2072 c 1
 1540 2072 l 1
 1622 2538 1450 2588 1450 2896 c 0
 1450 3096 1568 3244 1736 3244 c 0
 1896 3244 2008 3106 1950 2888 c 0
EndSplineSet
EndChar

StartChar: at
Encoding: 64 64 79
GlifName: at
Width: 4136
VWidth: 4730
Flags: HMW
LayerCount: 2
Fore
SplineSet
2466 1438 m 0
 2466 832 2146 286 1712 286 c 0
 1380 286 1098 516 1098 942 c 0
 1098 1556 1560 2166 2052 2166 c 0
 2400 2166 2466 1774 2466 1438 c 0
2450 1418 m 0
 2450 1590 2436 2088 2142 2088 c 0
 1872 2088 1610 1434 1610 926 c 0
 1610 652 1672 364 1844 364 c 0
 2148 364 2450 878 2450 1418 c 0
2360 860 m 2
 2654 2130 l 1
 3122 2130 l 1
 2822 848 l 2
 2802 766 2642 328 2932 328 c 0
 3484 328 3896 974 3896 1642 c 0
 3896 2380 3420 3220 2392 3220 c 0
 1208 3220 242 2138 242 864 c 0
 242 -410 978 -860 1716 -860 c 0
 2384 -860 2854 -652 3198 -250 c 1
 3216 -262 l 1
 2872 -664 2384 -876 1716 -876 c 0
 966 -876 226 -422 226 864 c 0
 226 2146 1196 3236 2396 3236 c 0
 3432 3236 3912 2392 3912 1642 c 0
 3912 978 3530 278 2806 278 c 0
 2392 278 2302 606 2360 860 c 2
EndSplineSet
EndChar

StartChar: dollar
Encoding: 36 36 80
GlifName: dollar
Width: 2346
Flags: HMW
LayerCount: 2
Fore
SplineSet
1490 3400 m 1
 1512 3400 l 1
 652 -328 l 1
 630 -328 l 1
 1490 3400 l 1
1852 3400 m 1
 1872 3400 l 1
 1012 -328 l 1
 992 -328 l 1
 1852 3400 l 1
902 2532 m 0
 902 1770 2192 2016 2192 918 c 0
 2192 304 1638 -62 1060 -62 c 0
 502 -62 122 302 122 622 c 0
 122 818 238 978 434 978 c 0
 574 978 720 876 720 688 c 0
 720 500 574 394 418 394 c 0
 270 394 176 496 152 574 c 1
 192 254 568 -46 1060 -46 c 0
 1494 -46 1758 304 1758 652 c 0
 1758 1500 500 1152 500 2184 c 0
 500 2716 1032 3112 1536 3112 c 0
 1978 3112 2388 2814 2388 2474 c 0
 2388 2286 2276 2126 2080 2126 c 0
 1940 2126 1790 2224 1790 2416 c 0
 1790 2596 1946 2704 2094 2704 c 0
 2238 2704 2332 2610 2356 2528 c 1
 2328 2818 1974 3088 1568 3088 c 0
 1134 3088 902 2832 902 2532 c 0
EndSplineSet
EndChar

StartChar: numbersign
Encoding: 35 35 81
GlifName: numbersign
Width: 2580
Flags: HMW
LayerCount: 2
Fore
SplineSet
270 1032 m 1
 2482 1032 l 1
 2482 1012 l 1
 270 1012 l 1
 270 1032 l 1
476 2122 m 1
 2686 2122 l 1
 2686 2102 l 1
 476 2102 l 1
 476 2122 l 1
2248 3088 m 1
 2266 3092 l 1
 1548 -20 l 1
 1532 -24 l 1
 2248 3088 l 1
1430 3092 m 1
 1446 3092 l 1
 730 -20 l 1
 712 -20 l 1
 1430 3092 l 1
EndSplineSet
EndChar

StartChar: slash
Encoding: 47 47 82
GlifName: slash
Width: 2128
Flags: HMW
LayerCount: 2
Fore
SplineSet
2520 3194 m 1
 2540 3194 l 1
 -102 -614 l 1
 -122 -614 l 1
 2520 3194 l 1
EndSplineSet
EndChar

StartChar: percent
Encoding: 37 37 83
GlifName: percent
Width: 4096
Flags: HMW
LayerCount: 2
Fore
SplineSet
2990 -40 m 0
 2592 -40 2334 152 2334 574 c 0
 2334 1242 2796 1762 3358 1762 c 0
 3756 1762 4014 1568 4014 1146 c 0
 4014 478 3552 -40 2990 -40 c 0
3366 1744 m 0
 3088 1744 2802 922 2802 422 c 0
 2802 172 2860 -24 2982 -24 c 0
 3260 -24 3544 750 3544 1250 c 0
 3544 1500 3488 1744 3366 1744 c 0
3642 3072 m 1
 3666 3072 l 1
 816 0 l 1
 790 0 l 1
 3642 3072 l 1
1126 1310 m 0
 728 1310 472 1504 472 1926 c 0
 472 2594 934 3112 1496 3112 c 0
 1894 3112 2150 2920 2150 2498 c 0
 2150 1830 1688 1310 1126 1310 c 0
1504 3096 m 0
 1226 3096 938 2274 938 1774 c 0
 938 1524 996 1328 1118 1328 c 0
 1396 1328 1680 2154 1680 2654 c 0
 1680 2904 1626 3096 1504 3096 c 0
EndSplineSet
EndChar

StartChar: hyphen
Encoding: 45 45 85
GlifName: hyphen
Width: 1474
Flags: HMW
LayerCount: 2
Fore
SplineSet
340 1134 m 1
 1324 1134 l 1
 1324 1118 l 1
 340 1118 l 1
 340 1134 l 1
EndSplineSet
EndChar

StartChar: plus
Encoding: 43 43 87
GlifName: plus
Width: 2170
Flags: HMW
LayerCount: 2
Fore
SplineSet
1016 450 m 1
 1404 2130 l 1
 1422 2130 l 1
 1032 450 l 1
 1016 450 l 1
380 1302 m 1
 2060 1302 l 1
 2060 1286 l 1
 380 1286 l 1
 380 1302 l 1
EndSplineSet
EndChar

StartChar: less
Encoding: 60 60 89
GlifName: less
Width: 2292
Flags: HMW
LayerCount: 2
Fore
SplineSet
450 1582 m 1
 450 1598 l 1
 2416 2458 l 1
 2416 2442 l 1
 450 1582 l 1
450 1576 m 1
 450 1594 l 1
 2048 734 l 1
 2048 716 l 1
 450 1576 l 1
EndSplineSet
EndChar

StartChar: backslash
Encoding: 92 92 91
GlifName: backslash
Width: 2128
Flags: HMW
LayerCount: 2
Fore
SplineSet
754 3194 m 1
 1680 -614 l 1
 1662 -614 l 1
 738 3194 l 1
 754 3194 l 1
EndSplineSet
EndChar

StartChar: bracketleft
Encoding: 91 91 92
GlifName: bracketleft
Width: 1428
Flags: HMW
LayerCount: 2
Fore
SplineSet
820 3194 m 1
 1860 3194 l 1
 1860 3178 l 1
 1262 3178 l 1
 418 -598 l 1
 1000 -598 l 1
 1000 -614 l 1
 -40 -614 l 1
 820 3194 l 1
EndSplineSet
EndChar

StartChar: braceleft
Encoding: 123 123 93
GlifName: braceleft
Width: 1196
VWidth: 4730
Flags: HMW
LayerCount: 2
Fore
SplineSet
1646 3194 m 1
 1646 3166 l 1
 1294 3166 1090 2864 1090 2524 c 0
 1090 2294 1130 2176 1130 1864 c 0
 1130 1500 676 1322 348 1282 c 1
 348 1306 l 1
 470 1346 704 1460 704 1668 c 0
 704 1894 622 1982 622 2338 c 0
 622 2842 970 3194 1646 3194 c 1
786 -614 m 1
 242 -614 20 -488 20 -140 c 0
 20 348 552 746 552 1004 c 0
 552 1172 470 1234 348 1274 c 1
 348 1302 l 1
 676 1262 868 1166 868 884 c 0
 868 474 484 124 484 -188 c 0
 484 -392 532 -586 786 -586 c 1
 786 -614 l 1
EndSplineSet
EndChar

StartChar: bar
Encoding: 124 124 96
GlifName: bar
Width: 942
VWidth: 4730
Flags: HMW
LayerCount: 2
Fore
SplineSet
1040 3194 m 1
 1056 3194 l 1
 74 -1024 l 1
 58 -1024 l 1
 1040 3194 l 1
EndSplineSet
EndChar

StartChar: cent
Encoding: 162 162 98
GlifName: cent
Width: 1948
VWidth: 4730
Flags: HMW
LayerCount: 2
Fore
SplineSet
1392 2274 m 1
 696 -348 l 1
 676 -348 l 1
 1372 2274 l 1
 1392 2274 l 1
EndSplineSet
Refer: 40 99 N 1 0 0 1 0 0 2
EndChar

StartChar: sterling
Encoding: 163 163 99
GlifName: sterling
Width: 2568
VWidth: 4730
Flags: HMW
LayerCount: 2
Fore
SplineSet
2506 742 m 1
 2424 140 2052 -122 1638 -122 c 0
 1076 -122 848 122 590 122 c 0
 414 122 226 40 152 -82 c 1
 140 -82 l 1
 272 254 572 496 958 496 c 0
 1368 496 1426 356 1802 356 c 0
 2126 356 2408 406 2490 742 c 1
 2506 742 l 1
2192 1658 m 1
 2192 1642 l 1
 266 1642 l 1
 266 1658 l 1
 2192 1658 l 1
778 2098 m 0
 778 2712 1338 3112 2080 3112 c 0
 2646 3112 2912 2776 2912 2424 c 0
 2912 2232 2774 2122 2626 2122 c 0
 2490 2122 2342 2212 2342 2400 c 0
 2342 2568 2482 2666 2626 2666 c 0
 2770 2666 2868 2564 2888 2470 c 1
 2880 2774 2622 3084 2146 3084 c 0
 1610 3084 1348 2582 1348 2278 c 0
 1348 2004 1434 1840 1434 1500 c 0
 1434 706 102 602 148 -82 c 1
 132 -82 l 1
 62 488 906 798 906 1274 c 0
 906 1504 778 1750 778 2098 c 0
EndSplineSet
EndChar

StartChar: section
Encoding: 167 167 101
GlifName: section
Width: 1940
VWidth: 4730
Flags: HMW
LayerCount: 2
Fore
SplineSet
864 2614 m 0
 864 2172 1900 2272 1900 1654 c 0
 1900 1326 1550 1192 1332 1048 c 1
 1318 1052 l 1
 1454 1142 1568 1266 1568 1430 c 0
 1568 1876 582 1716 582 2420 c 0
 582 2846 1012 3112 1418 3112 c 0
 1820 3112 2060 2842 2060 2572 c 0
 2060 2322 1946 2212 1786 2212 c 0
 1646 2212 1540 2302 1540 2466 c 0
 1540 2606 1662 2708 1798 2708 c 0
 1934 2708 2020 2616 2040 2580 c 1
 2032 2814 1840 3092 1418 3092 c 0
 1118 3092 864 2880 864 2614 c 0
1672 688 m 0
 1672 262 1238 -40 750 -40 c 0
 390 -40 20 138 20 532 c 0
 20 708 152 876 332 876 c 0
 472 876 578 786 578 630 c 0
 578 482 454 380 290 380 c 0
 154 380 60 450 36 540 c 1
 40 150 390 -20 750 -20 c 0
 1172 -20 1360 280 1360 472 c 0
 1360 938 282 810 282 1396 c 0
 282 1690 614 1942 802 2040 c 1
 820 2040 l 1
 758 1990 672 1856 672 1692 c 0
 672 1180 1672 1400 1672 688 c 0
EndSplineSet
EndChar

StartChar: brokenbar
Encoding: 166 166 102
GlifName: brokenbar
Width: 900
VWidth: 4730
Flags: HMW
LayerCount: 2
Fore
SplineSet
434 680 m 1
 450 680 l 1
 58 -1024 l 1
 40 -1024 l 1
 434 680 l 1
1016 3194 m 1
 1032 3194 l 1
 680 1676 l 1
 664 1676 l 1
 1016 3194 l 1
EndSplineSet
EndChar

StartChar: asciitilde
Encoding: 126 126 104
GlifName: asciitilde
Width: 2818
VWidth: 4730
Flags: HMW
LayerCount: 2
Fore
SplineSet
1114 1766 m 0
 868 1766 722 1674 644 1404 c 1
 614 1404 l 1
 704 1876 934 2114 1274 2114 c 0
 1724 2114 1764 1728 2154 1728 c 0
 2440 1728 2588 1818 2666 2088 c 1
 2696 2088 l 1
 2606 1616 2376 1380 2036 1380 c 0
 1548 1380 1466 1766 1114 1766 c 0
EndSplineSet
EndChar

StartChar: copyright
Encoding: 169 169 105
GlifName: copyright
Width: 3562
Flags: HMW
LayerCount: 2
Fore
SplineSet
348 1250 m 0
 348 2204 1258 3112 2212 3112 c 0
 3002 3112 3584 2612 3584 1822 c 0
 3584 868 2674 -40 1720 -40 c 0
 930 -40 348 460 348 1250 c 0
364 1250 m 0
 364 468 938 -24 1720 -24 c 0
 2662 -24 3568 876 3568 1822 c 0
 3568 2604 2994 3096 2212 3096 c 0
 1270 3096 364 2196 364 1250 c 0
EndSplineSet
Refer: 14 67 N 0.6 0 0 0.6 934 614 2
EndChar

StartChar: registered
Encoding: 174 174 106
GlifName: registered
Width: 3562
Flags: HMW
LayerCount: 2
Fore
SplineSet
348 1250 m 0
 348 2204 1258 3112 2212 3112 c 0
 3002 3112 3584 2612 3584 1822 c 0
 3584 868 2674 -40 1720 -40 c 0
 930 -40 348 460 348 1250 c 0
364 1250 m 0
 364 468 938 -24 1720 -24 c 0
 2662 -24 3568 876 3568 1822 c 0
 3568 2604 2994 3096 2212 3096 c 0
 1270 3096 364 2196 364 1250 c 0
EndSplineSet
Refer: 29 82 N 0.6 0 0 0.6 1032 606 2
EndChar

StartChar: logicalnot
Encoding: 172 172 107
GlifName: logicalnot
Width: 1990
Flags: HMW
LayerCount: 2
Fore
SplineSet
2094 2502 m 1
 614 2502 l 1
 614 2520 l 1
 2114 2520 l 1
 1930 1692 l 1
 1912 1692 l 1
 2094 2502 l 1
EndSplineSet
EndChar

StartChar: guillemotleft
Encoding: 171 171 108
GlifName: guillemotleft
Width: 2846
Flags: HMW
LayerCount: 2
Fore
SplineSet
2052 1590 m 1
 2610 602 l 1
 2600 594 l 1
 1454 1536 l 1
 1454 1638 l 1
 3052 2580 l 1
 3060 2572 l 1
 2052 1590 l 1
906 1590 m 1
 1462 602 l 1
 1454 594 l 1
 308 1536 l 1
 308 1638 l 1
 1904 2580 l 1
 1912 2572 l 1
 906 1590 l 1
EndSplineSet
EndChar

StartChar: mu
Encoding: 181 181 111
GlifName: mu
Width: 2564
VWidth: 4730
Flags: HMW
LayerCount: 2
Fore
SplineSet
54 -372 m 2
 -32 -758 34 -1040 394 -1048 c 1
 504 -1040 l 1
 394 -1020 266 -946 266 -774 c 0
 266 -626 388 -512 524 -512 c 0
 660 -512 790 -622 790 -778 c 0
 790 -938 694 -1064 394 -1064 c 0
 26 -1064 -54 -762 36 -372 c 2
 426 1314 l 1
 442 1314 l 1
 54 -372 l 2
EndSplineSet
Refer: 58 117 N 1 0 0 1 0 0 2
EndChar

StartChar: asciicircum
Encoding: 94 94 113
GlifName: asciicircum
Width: 2232
Flags: HMW
LayerCount: 2
Fore
SplineSet
1672 2962 m 1
 876 2564 l 1
 860 2580 l 1
 1556 3154 l 1
 1822 3154 l 1
 2274 2580 l 1
 2256 2564 l 1
 1672 2962 l 1
EndSplineSet
EndChar

StartChar: degree
Encoding: 176 176 115
GlifName: degree
Width: 1310
Flags: HMW
LayerCount: 2
Fore
SplineSet
794 2786 m 0
 794 3056 1016 3276 1286 3276 c 0
 1556 3276 1778 3056 1778 2786 c 0
 1778 2516 1556 2294 1286 2294 c 0
 1016 2294 794 2516 794 2786 c 0
898 2786 m 0
 898 2560 1060 2396 1286 2396 c 0
 1512 2396 1676 2560 1676 2786 c 0
 1676 3012 1512 3174 1286 3174 c 0
 1060 3174 898 3012 898 2786 c 0
EndSplineSet
EndChar

StartChar: onequarter
Encoding: 188 188 119
GlifName: onequarter
Width: 2624
Flags: HMW
LayerCount: 2
Fore
SplineSet
2588 2662 m 1
 2606 2662 l 1
 -54 -410 l 1
 -70 -410 l 1
 2588 2662 l 1
EndSplineSet
Refer: 6 52 N 0.6 0 0 0.6 984 -422 2
Refer: 3 49 N 0.6 0 0 0.6 418 1458 2
EndChar

StartChar: onehalf
Encoding: 189 189 120
GlifName: onehalf
Width: 2744
Flags: HMW
LayerCount: 2
Fore
SplineSet
2588 2662 m 1
 2606 2662 l 1
 -54 -410 l 1
 -70 -410 l 1
 2588 2662 l 1
EndSplineSet
Refer: 4 50 N 0.6 0 0 0.6 1396 -414 2
Refer: 3 49 N 0.6 0 0 0.6 418 1458 2
EndChar

StartChar: threequarters
Encoding: 190 190 121
GlifName: threequarters
Width: 2870
Flags: HMW
LayerCount: 2
Fore
SplineSet
2834 2662 m 1
 2850 2662 l 1
 192 -410 l 1
 176 -410 l 1
 2834 2662 l 1
EndSplineSet
Refer: 5 51 N 0.6 0 0 0.6 348 1450 2
Refer: 6 52 N 0.6 0 0 0.6 1228 -422 2
EndChar

StartChar: grave
Encoding: 96 96 123
GlifName: grave
Width: 1634
Flags: HMW
LayerCount: 2
Fore
SplineSet
966 2916 m 2
 864 2912 774 2990 774 3092 c 0
 774 3194 876 3300 1008 3260 c 2
 1954 2966 l 1
 1946 2950 l 1
 966 2916 l 2
EndSplineSet
EndChar

StartChar: acute
Encoding: 180 180 124
GlifName: acute
Width: 1634
Flags: HMW
LayerCount: 2
Fore
SplineSet
1922 2908 m 2
 942 2940 l 1
 934 2958 l 1
 1880 3252 l 2
 2012 3292 2114 3186 2114 3084 c 0
 2114 2982 2024 2904 1922 2908 c 2
EndSplineSet
EndChar

StartChar: multiply
Encoding: 215 215 127
GlifName: multiply
Width: 2170
Flags: HMW
LayerCount: 2
Fore
SplineSet
1672 688 m 1
 750 1876 l 1
 766 1892 l 1
 1688 704 l 1
 1672 688 l 1
480 708 m 1
 1934 1896 l 1
 1950 1880 l 1
 496 692 l 1
 480 708 l 1
EndSplineSet
EndChar

StartChar: cedilla
Encoding: 184 184 128
GlifName: cedilla
Width: 2252
Flags: HMW
LayerCount: 2
Fore
SplineSet
970 -324 m 1
 1462 168 l 1
 1486 168 l 1
 996 -324 l 1
 970 -324 l 1
970 -324 m 1
 1146 -160 l 1
 1486 -160 1728 -238 1728 -450 c 0
 1728 -712 1360 -902 922 -902 c 1
 922 -884 l 1
 1164 -884 1356 -750 1356 -532 c 0
 1356 -364 1220 -324 970 -324 c 1
EndSplineSet
EndChar

StartChar: ring
Encoding: 730 730 271
GlifName: ring
Width: 1310
VWidth: 0
Flags: HMW
LayerCount: 2
Fore
SplineSet
758 2786 m 0
 758 2994 920 3154 1146 3154 c 0
 1372 3154 1536 2994 1536 2786 c 0
 1536 2578 1372 2416 1146 2416 c 0
 920 2416 758 2578 758 2786 c 0
942 2674 m 0
 942 2534 982 2434 1118 2434 c 0
 1262 2434 1352 2732 1352 2896 c 0
 1352 3036 1312 3138 1176 3138 c 0
 1032 3138 942 2838 942 2674 c 0
EndSplineSet
EndChar

StartChar: tilde
Encoding: 732 732 272
GlifName: tilde
Width: 1834
VWidth: 0
Flags: HMW
LayerCount: 2
Fore
SplineSet
942 2716 m 0
 786 2716 692 2654 610 2458 c 1
 594 2458 l 1
 676 2806 884 3002 1110 3002 c 0
 1396 3002 1568 2678 1794 2678 c 0
 1950 2678 2044 2740 2126 2936 c 1
 2142 2936 l 1
 2060 2546 1894 2392 1668 2392 c 0
 1352 2392 1196 2716 942 2716 c 0
EndSplineSet
EndChar

StartChar: AE
Encoding: 198 198 274
GlifName: A_E_
Width: 4144
Flags: HMW
LayerCount: 2
Fore
SplineSet
2838 3072 m 1
 4530 3072 l 1
 4334 2232 l 1
 4318 2232 l 1
 4396 2670 4236 3056 3756 3056 c 2
 2838 3056 l 1
 2838 3072 l 1
3022 1582 m 2
 2740 1582 l 1
 2740 1598 l 1
 3022 1598 l 2
 3256 1598 3514 1770 3600 2044 c 1
 3616 2044 l 1
 3404 1114 l 1
 3388 1114 l 1
 3424 1388 3256 1582 3022 1582 c 2
3858 0 m 1
 1638 0 l 1
 1638 16 l 1
 3044 16 l 2
 3606 16 3912 402 4056 922 c 1
 4072 922 l 1
 3858 0 l 1
2700 3072 m 1
 3186 3072 l 1
 2474 0 l 1
 1986 0 l 1
 2700 3072 l 1
1082 1012 m 1
 2274 1012 l 1
 2274 996 l 1
 1082 996 l 1
 1082 1012 l 1
2682 3072 m 1
 2708 3072 l 1
 308 0 l 1
 278 0 l 1
 2682 3072 l 1
-102 16 m 1
 798 16 l 1
 798 0 l 1
 -102 0 l 1
 -102 16 l 1
EndSplineSet
EndChar

StartChar: ae
Encoding: 230 230 277
GlifName: ae
Width: 3248
VWidth: 4730
Flags: HMW
LayerCount: 2
Fore
SplineSet
1122 1036 m 2
 1442 1036 l 1
 1442 1020 l 1
 1172 1020 l 2
 844 1020 570 720 570 344 c 0
 570 118 660 -20 786 -20 c 0
 1012 -20 1228 340 1318 742 c 2
 1434 1250 l 2
 1492 1512 1496 1896 1176 1896 c 0
 984 1896 688 1822 574 1658 c 1
 812 1780 1000 1664 1000 1508 c 0
 1000 1336 852 1242 716 1242 c 0
 560 1242 462 1326 462 1482 c 0
 462 1736 826 1916 1216 1916 c 0
 1748 1916 1860 1622 1794 1250 c 1
 1626 742 l 1
 1532 234 1184 -40 712 -40 c 0
 372 -40 74 76 74 380 c 0
 74 766 458 1036 1122 1036 c 2
2772 1540 m 0
 2772 1724 2732 1908 2596 1908 c 0
 2272 1908 1856 1230 1856 558 c 0
 1856 264 1954 4 2188 4 c 0
 2532 4 2854 278 3022 586 c 1
 3040 586 l 1
 2872 270 2536 -40 2056 -40 c 0
 1724 -40 1438 164 1438 656 c 1
 1520 634 l 1
 1528 1412 2056 1926 2614 1926 c 0
 2950 1926 3232 1820 3232 1516 c 0
 3232 918 2208 914 1818 914 c 1
 1818 926 l 1
 2198 926 2772 992 2772 1540 c 0
EndSplineSet
EndChar

StartChar: perthousand
Encoding: 8240 8240 285
GlifName: perthousand
Width: 6062
Flags: HMW
LayerCount: 2
Fore
SplineSet
4956 -40 m 0
 4558 -40 4300 152 4300 574 c 0
 4300 1242 4762 1762 5324 1762 c 0
 5722 1762 5980 1568 5980 1146 c 0
 5980 478 5518 -40 4956 -40 c 0
5332 1744 m 0
 5054 1744 4768 922 4768 422 c 0
 4768 172 4826 -24 4948 -24 c 0
 5226 -24 5510 750 5510 1250 c 0
 5510 1500 5454 1744 5332 1744 c 0
2990 -40 m 0
 2592 -40 2334 152 2334 574 c 0
 2334 1242 2796 1762 3358 1762 c 0
 3756 1762 4014 1568 4014 1146 c 0
 4014 478 3552 -40 2990 -40 c 0
3366 1744 m 0
 3088 1744 2802 922 2802 422 c 0
 2802 172 2860 -24 2982 -24 c 0
 3260 -24 3544 750 3544 1250 c 0
 3544 1500 3488 1744 3366 1744 c 0
3642 3072 m 1
 3666 3072 l 1
 816 0 l 1
 790 0 l 1
 3642 3072 l 1
1126 1310 m 0
 728 1310 472 1504 472 1926 c 0
 472 2594 934 3112 1496 3112 c 0
 1894 3112 2150 2920 2150 2498 c 0
 2150 1830 1688 1310 1126 1310 c 0
1504 3096 m 0
 1226 3096 938 2274 938 1774 c 0
 938 1524 996 1328 1118 1328 c 0
 1396 1328 1680 2154 1680 2654 c 0
 1680 2904 1626 3096 1504 3096 c 0
EndSplineSet
EndChar

StartChar: uni2031
Encoding: 8241 8241 286
GlifName: uni2031
Width: 8060
Flags: HMW
LayerCount: 2
Fore
SplineSet
6960 -40 m 0
 6562 -40 6304 152 6304 574 c 0
 6304 1242 6766 1762 7328 1762 c 0
 7726 1762 7984 1568 7984 1146 c 0
 7984 478 7522 -40 6960 -40 c 0
7336 1744 m 0
 7058 1744 6770 922 6770 422 c 0
 6770 172 6828 -24 6950 -24 c 0
 7228 -24 7512 750 7512 1250 c 0
 7512 1500 7458 1744 7336 1744 c 0
4956 -40 m 0
 4558 -40 4300 152 4300 574 c 0
 4300 1242 4762 1762 5324 1762 c 0
 5722 1762 5980 1568 5980 1146 c 0
 5980 478 5518 -40 4956 -40 c 0
5332 1744 m 0
 5054 1744 4768 922 4768 422 c 0
 4768 172 4826 -24 4948 -24 c 0
 5226 -24 5510 750 5510 1250 c 0
 5510 1500 5454 1744 5332 1744 c 0
2990 -40 m 0
 2592 -40 2334 152 2334 574 c 0
 2334 1242 2796 1762 3358 1762 c 0
 3756 1762 4014 1568 4014 1146 c 0
 4014 478 3552 -40 2990 -40 c 0
3366 1744 m 0
 3088 1744 2802 922 2802 422 c 0
 2802 172 2860 -24 2982 -24 c 0
 3260 -24 3544 750 3544 1250 c 0
 3544 1500 3488 1744 3366 1744 c 0
3642 3072 m 1
 3666 3072 l 1
 816 0 l 1
 790 0 l 1
 3642 3072 l 1
1126 1310 m 0
 728 1310 472 1504 472 1926 c 0
 472 2594 934 3112 1496 3112 c 0
 1894 3112 2150 2920 2150 2498 c 0
 2150 1830 1688 1310 1126 1310 c 0
1504 3096 m 0
 1226 3096 938 2274 938 1774 c 0
 938 1524 996 1328 1118 1328 c 0
 1396 1328 1680 2154 1680 2654 c 0
 1680 2904 1626 3096 1504 3096 c 0
EndSplineSet
EndChar

StartChar: uniFB00
Encoding: 64256 64256 290
GlifName: uniF_B_00
Width: 2698
VWidth: 4730
Flags: HMW
LayerCount: 2
Fore
SplineSet
242 1884 m 1
 2822 1884 l 1
 2822 1868 l 1
 242 1868 l 1
 242 1884 l 1
3314 2782 m 1
 3286 2922 3134 3096 2860 3096 c 0
 2574 3096 2380 2712 2290 2212 c 2
 1922 156 l 2
 1820 -418 1434 -860 868 -860 c 0
 478 -860 320 -618 320 -430 c 0
 320 -246 438 -144 586 -144 c 0
 712 -144 856 -218 856 -398 c 0
 856 -578 722 -664 578 -664 c 0
 484 -664 388 -606 364 -528 c 1
 392 -668 544 -844 852 -844 c 0
 1172 -844 1368 -460 1454 40 c 2
 1818 2098 l 2
 1916 2672 2310 3112 2842 3112 c 0
 3198 3112 3358 2870 3358 2682 c 0
 3358 2498 3240 2396 3092 2396 c 0
 2966 2396 2822 2470 2822 2650 c 0
 2822 2830 2956 2916 3100 2916 c 0
 3194 2916 3286 2856 3314 2782 c 1
2142 2576 m 1
 2114 2716 1962 2892 1654 2892 c 0
 1334 2892 1138 2512 1048 2012 c 2
 684 -50 l 2
 582 -624 196 -1064 -336 -1064 c 0
 -692 -1064 -852 -822 -852 -634 c 0
 -852 -450 -734 -348 -586 -348 c 0
 -460 -348 -316 -422 -316 -602 c 0
 -316 -782 -450 -868 -594 -868 c 0
 -688 -868 -788 -812 -812 -734 c 1
 -784 -874 -630 -1048 -356 -1048 c 0
 -70 -1048 132 -664 218 -164 c 2
 578 1892 l 2
 676 2466 1068 2908 1634 2908 c 0
 2024 2908 2184 2666 2184 2478 c 0
 2184 2294 2064 2192 1916 2192 c 0
 1790 2192 1646 2266 1646 2446 c 0
 1646 2626 1782 2712 1926 2712 c 0
 2020 2712 2114 2650 2142 2576 c 1
EndSplineSet
Ligature2: "'liga' Standard Ligatures lookup 0-1" f f
LCarets2: 1 0
EndChar

StartChar: uniFB01
Encoding: 64257 64257 291
GlifName: uniF_B_01
Width: 2584
VWidth: 4730
Flags: HMW
LayerCount: 2
Fore
SplineSet
2502 668 m 1
 2346 258 2088 -40 1732 -40 c 0
 1514 -40 1404 52 1404 274 c 0
 1404 294 1410 340 1414 364 c 2
 1758 1868 l 1
 242 1868 l 1
 242 1884 l 1
 2216 1884 l 1
 1814 172 l 2
 1810 148 1806 118 1806 98 c 0
 1806 52 1826 16 1880 16 c 0
 2114 16 2350 304 2490 676 c 1
 2502 668 l 1
2294 2782 m 1
 2262 2930 2106 3096 1762 3096 c 0
 1394 3096 1184 2720 1094 2212 c 2
 684 -50 l 2
 582 -620 196 -1064 -336 -1064 c 0
 -692 -1064 -852 -822 -852 -634 c 0
 -852 -450 -734 -348 -586 -348 c 0
 -460 -348 -316 -422 -316 -602 c 0
 -316 -782 -450 -868 -594 -868 c 0
 -688 -868 -788 -812 -812 -734 c 1
 -784 -874 -630 -1048 -356 -1048 c 0
 -70 -1048 132 -664 218 -164 c 2
 622 2098 l 2
 720 2672 1130 3112 1744 3112 c 0
 2174 3112 2334 2878 2334 2682 c 0
 2334 2498 2216 2396 2068 2396 c 0
 1942 2396 1798 2470 1798 2650 c 0
 1798 2830 1932 2916 2076 2916 c 0
 2170 2916 2266 2856 2294 2782 c 1
EndSplineSet
Ligature2: "'liga' Standard Ligatures lookup 0-1" f i
LCarets2: 1 0
EndChar

StartChar: uniFB02
Encoding: 64258 64258 292
GlifName: uniF_B_02
Width: 2714
VWidth: 4730
Flags: HMW
LayerCount: 2
Fore
SplineSet
2634 668 m 1
 2478 258 2220 -40 1864 -40 c 0
 1646 -40 1536 52 1536 274 c 0
 1536 294 1540 340 1544 364 c 2
 2146 2990 l 1
 2634 3154 l 1
 1942 172 l 2
 1938 148 1934 118 1934 98 c 0
 1934 52 1954 20 2008 20 c 0
 2246 20 2490 320 2622 676 c 1
 2634 668 l 1
242 1884 m 1
 1626 1884 l 1
 1626 1868 l 1
 242 1868 l 1
 242 1884 l 1
2286 2682 m 0
 2286 2498 2168 2396 2020 2396 c 0
 1894 2396 1748 2470 1748 2650 c 0
 1748 2830 1884 2916 2028 2916 c 0
 2122 2916 2212 2856 2240 2782 c 1
 2212 2922 2090 3096 1786 3096 c 0
 1450 3096 1184 2712 1094 2212 c 2
 684 -50 l 2
 582 -620 196 -1064 -336 -1064 c 0
 -692 -1064 -852 -822 -852 -634 c 0
 -852 -450 -734 -348 -586 -348 c 0
 -460 -348 -316 -422 -316 -602 c 0
 -316 -782 -450 -868 -594 -868 c 0
 -688 -868 -788 -812 -812 -734 c 1
 -784 -874 -634 -1048 -356 -1048 c 0
 -70 -1048 132 -664 218 -164 c 2
 622 2098 l 2
 720 2672 1188 3112 1770 3112 c 0
 2150 3112 2286 2882 2286 2682 c 0
EndSplineSet
Ligature2: "'liga' Standard Ligatures lookup 0-1" f l
LCarets2: 1 0
EndChar

StartChar: uniFB03
Encoding: 64259 64259 293
GlifName: uniF_B_03
Width: 3780
VWidth: 4730
Flags: HMW
LayerCount: 2
Fore
SplineSet
3698 668 m 1
 3542 258 3284 -40 2928 -40 c 0
 2710 -40 2600 52 2600 274 c 0
 2600 294 2606 340 2610 364 c 2
 2954 1868 l 1
 242 1868 l 1
 242 1884 l 1
 3412 1884 l 1
 3010 172 l 2
 3006 148 3002 118 3002 98 c 0
 3002 52 3022 20 3076 20 c 0
 3310 20 3546 304 3686 676 c 1
 3698 668 l 1
3530 2682 m 0
 3530 2498 3412 2396 3264 2396 c 0
 3138 2396 2994 2470 2994 2650 c 0
 2994 2830 3128 2916 3272 2916 c 0
 3366 2916 3462 2856 3490 2782 c 1
 3458 2930 3306 3096 2962 3096 c 0
 2594 3096 2380 2720 2290 2212 c 2
 1926 156 l 2
 1828 -414 1434 -860 868 -860 c 0
 478 -860 320 -618 320 -430 c 0
 320 -246 438 -144 586 -144 c 0
 712 -144 856 -218 856 -398 c 0
 856 -578 726 -664 582 -664 c 0
 488 -664 388 -606 364 -528 c 1
 392 -668 544 -844 852 -844 c 0
 1172 -844 1368 -460 1454 40 c 2
 1818 2098 l 2
 1916 2672 2326 3112 2940 3112 c 0
 3358 3112 3530 2890 3530 2682 c 0
2142 2576 m 1
 2114 2716 1962 2892 1654 2892 c 0
 1334 2892 1138 2512 1048 2012 c 2
 684 -50 l 2
 582 -624 196 -1064 -336 -1064 c 0
 -692 -1064 -852 -822 -852 -634 c 0
 -852 -450 -734 -348 -586 -348 c 0
 -460 -348 -316 -422 -316 -602 c 0
 -316 -782 -450 -868 -594 -868 c 0
 -688 -868 -788 -812 -812 -734 c 1
 -784 -874 -634 -1048 -356 -1048 c 0
 -70 -1048 132 -664 218 -164 c 2
 578 1892 l 2
 676 2466 1068 2908 1634 2908 c 0
 2024 2908 2184 2666 2184 2478 c 0
 2184 2294 2064 2192 1916 2192 c 0
 1790 2192 1646 2266 1646 2446 c 0
 1646 2626 1782 2712 1926 2712 c 0
 2020 2712 2114 2650 2142 2576 c 1
EndSplineSet
Ligature2: "'liga' Standard Ligatures lookup 0-1" f f i
LCarets2: 2 0 0
EndChar

StartChar: uniFB04
Encoding: 64260 64260 294
GlifName: uniF_B_04
Width: 3910
VWidth: 4730
Flags: HMW
LayerCount: 2
Fore
SplineSet
3830 668 m 1
 3674 258 3416 -40 3060 -40 c 0
 2842 -40 2732 52 2732 274 c 0
 2732 294 2736 340 2740 364 c 2
 3342 2990 l 1
 3830 3154 l 1
 3138 172 l 2
 3134 148 3130 118 3130 98 c 0
 3130 52 3150 16 3204 16 c 0
 3442 16 3686 320 3818 676 c 1
 3830 668 l 1
242 1884 m 1
 2822 1884 l 1
 2822 1868 l 1
 242 1868 l 1
 242 1884 l 1
3436 2782 m 1
 3408 2922 3286 3096 2982 3096 c 0
 2646 3096 2380 2712 2290 2212 c 2
 1922 156 l 2
 1820 -418 1446 -860 880 -860 c 0
 490 -860 336 -618 336 -430 c 0
 336 -246 450 -144 598 -144 c 0
 724 -144 872 -218 872 -398 c 0
 872 -578 738 -664 594 -664 c 0
 500 -664 400 -606 376 -528 c 1
 404 -668 556 -844 864 -844 c 0
 1184 -844 1380 -460 1466 40 c 2
 1818 2098 l 2
 1916 2672 2384 3112 2966 3112 c 0
 3356 3112 3482 2870 3482 2682 c 0
 3482 2498 3364 2396 3216 2396 c 0
 3090 2396 2946 2470 2946 2650 c 0
 2946 2830 3080 2916 3224 2916 c 0
 3318 2916 3408 2856 3436 2782 c 1
2142 2576 m 1
 2114 2716 1962 2892 1654 2892 c 0
 1334 2892 1138 2512 1048 2012 c 2
 684 -50 l 2
 582 -624 196 -1064 -336 -1064 c 0
 -692 -1064 -852 -822 -852 -634 c 0
 -852 -450 -734 -348 -586 -348 c 0
 -460 -348 -316 -422 -316 -602 c 0
 -316 -782 -450 -868 -594 -868 c 0
 -688 -868 -788 -812 -812 -734 c 1
 -784 -874 -630 -1048 -356 -1048 c 0
 -70 -1048 132 -664 218 -164 c 2
 578 1892 l 2
 676 2466 1068 2908 1634 2908 c 0
 2024 2908 2184 2666 2184 2478 c 0
 2184 2294 2064 2192 1916 2192 c 0
 1790 2192 1646 2266 1646 2446 c 0
 1646 2626 1782 2712 1926 2712 c 0
 2020 2712 2114 2650 2142 2576 c 1
EndSplineSet
Ligature2: "'liga' Standard Ligatures lookup 0-1" f f l
LCarets2: 2 0 0
EndChar

StartChar: ogonek
Encoding: 731 731 295
GlifName: ogonek
Width: 2252
Flags: HMW
LayerCount: 2
Fore
SplineSet
1360 -462 m 1
 1298 -576 1164 -778 848 -778 c 0
 622 -778 410 -704 410 -466 c 0
 410 -138 898 86 1180 176 c 1
 1188 164 l 1
 1062 90 860 -114 860 -434 c 0
 860 -614 930 -712 1024 -712 c 0
 1180 -712 1290 -552 1344 -454 c 1
 1360 -462 l 1
EndSplineSet
EndChar

StartChar: dotlessi
Encoding: 305 305 296
GlifName: dotlessi
Width: 1380
VWidth: 4730
Flags: HMW
LayerCount: 2
Fore
SplineSet
1302 668 m 1
 1146 258 888 -40 532 -40 c 0
 314 -40 204 52 204 274 c 0
 204 294 208 340 212 364 c 2
 558 1868 l 1
 262 1868 l 1
 262 1884 l 1
 1016 1884 l 1
 610 172 l 2
 606 148 602 118 602 98 c 0
 602 52 622 16 676 16 c 0
 910 16 1150 304 1290 676 c 1
 1302 668 l 1
EndSplineSet
EndChar

StartChar: uni0237
Encoding: 567 567 297
GlifName: uni0237
Width: 1130
VWidth: 4730
Flags: HMW
LayerCount: 2
Fore
SplineSet
-724 -692 m 1
 -696 -864 -526 -1048 -308 -1048 c 0
 68 -1048 70 -410 184 82 c 2
 598 1868 l 1
 218 1868 l 1
 218 1884 l 1
 1040 1884 l 1
 638 -50 l 2
 532 -562 246 -1064 -286 -1064 c 0
 -594 -1064 -766 -798 -766 -622 c 0
 -766 -438 -620 -316 -472 -316 c 0
 -346 -316 -222 -406 -222 -566 c 0
 -222 -734 -360 -832 -512 -832 c 0
 -622 -832 -692 -766 -724 -692 c 1
EndSplineSet
EndChar

StartChar: kgreenlandic
Encoding: 312 312 306
GlifName: kgreenlandic
Width: 2358
VWidth: 4730
Flags: HMW
LayerCount: 2
Fore
SplineSet
2278 668 m 1
 2122 258 1872 -40 1524 -40 c 0
 1306 -40 1192 52 1192 274 c 0
 1192 294 1196 340 1200 364 c 2
 1246 574 l 2
 1300 812 1438 1160 1168 1160 c 0
 910 1160 852 926 816 778 c 1
 798 778 l 1
 880 1138 1050 1188 1242 1188 c 0
 1524 1188 1784 1028 1662 496 c 2
 1576 114 l 2
 1576 106 1572 86 1572 78 c 0
 1572 32 1600 12 1654 12 c 0
 1884 12 2130 312 2266 676 c 1
 2278 668 l 1
766 1324 m 1
 782 1310 l 1
 794 1110 888 1008 1032 1008 c 0
 1216 1008 1298 1216 1404 1478 c 0
 1518 1756 1672 1926 1884 1926 c 0
 2084 1926 2236 1790 2236 1560 c 0
 2236 1368 2116 1282 1990 1282 c 0
 1864 1282 1754 1376 1754 1520 c 0
 1754 1652 1854 1744 1986 1744 c 0
 2112 1744 2184 1668 2208 1594 c 1
 2196 1778 2072 1908 1884 1908 c 0
 1684 1908 1532 1744 1422 1466 c 0
 1312 1188 1224 992 1032 992 c 0
 880 992 766 1112 766 1324 c 1
614 1868 m 1
 254 1868 l 1
 254 1884 l 1
 1074 1884 l 1
 634 0 l 1
 184 0 l 1
 614 1868 l 1
EndSplineSet
EndChar

StartChar: breve
Encoding: 728 728 307
GlifName: breve
Width: 1178
VWidth: 4730
Flags: HMW
LayerCount: 2
Fore
SplineSet
672 3108 m 1
 636 2916 818 2822 1040 2822 c 0
 1262 2822 1526 2908 1572 3108 c 1
 1590 3108 l 1
 1550 2858 1394 2532 1000 2532 c 0
 648 2532 616 2858 656 3108 c 1
 672 3108 l 1
EndSplineSet
EndChar

StartChar: thorn
Encoding: 254 254 318
GlifName: thorn
Width: 2408
VWidth: 4730
Flags: HMW
LayerCount: 2
Fore
SplineSet
802 602 m 0
 802 320 886 62 1074 62 c 0
 1418 62 1782 792 1782 1340 c 0
 1782 1648 1684 1852 1500 1852 c 0
 1086 1852 802 1056 802 602 c 0
786 602 m 0
 786 1044 1052 1930 1630 1930 c 0
 1912 1930 2290 1764 2290 1232 c 0
 2290 412 1638 -32 1224 -32 c 0
 912 -32 786 226 786 602 c 0
-324 -1008 m 1
 680 -1008 l 1
 680 -1024 l 1
 -324 -1024 l 1
 -324 -1008 l 1
872 3056 m 1
 586 3056 l 1
 586 3072 l 1
 1332 3072 l 1
 906 1196 l 1
 824 914 l 1
 790 680 l 1
 394 -1024 l 1
 -58 -1024 l 1
 872 3056 l 1
EndSplineSet
EndChar

StartChar: Thorn
Encoding: 222 222 319
GlifName: T_horn
Width: 2584
Flags: HMW
LayerCount: 2
Fore
SplineSet
1290 738 m 2
 840 738 l 1
 840 754 l 1
 1250 754 l 2
 1790 754 2084 1390 2084 1836 c 0
 2084 2078 2010 2442 1658 2442 c 2
 1048 2442 l 1
 1048 2458 l 1
 1700 2458 l 2
 2236 2458 2634 2262 2634 1770 c 0
 2634 1156 2114 738 1290 738 c 2
-118 16 m 1
 1106 16 l 1
 1106 0 l 1
 -118 0 l 1
 -118 16 l 1
586 3072 m 1
 1810 3072 l 1
 1810 3056 l 1
 586 3056 l 1
 586 3072 l 1
950 3072 m 1
 1438 3072 l 1
 730 0 l 1
 242 0 l 1
 950 3072 l 1
EndSplineSet
EndChar

StartChar: Lslash
Encoding: 321 321 324
GlifName: L_slash
Width: 2374
Flags: HMW
LayerCount: 2
Fore
SplineSet
152 1474 m 1
 1646 2376 l 1
 1646 2356 l 1
 152 1454 l 1
 152 1474 l 1
EndSplineSet
Refer: 23 76 N 1 0 0 1 0 0 2
EndChar

StartChar: lslash
Encoding: 322 322 325
GlifName: lslash
Width: 1338
VWidth: 4730
Flags: HMW
LayerCount: 2
Fore
SplineSet
140 1606 m 1
 1404 2376 l 1
 1404 2352 l 1
 140 1582 l 1
 140 1606 l 1
EndSplineSet
Refer: 49 108 N 1 0 0 1 0 0 2
EndChar

StartChar: eth
Encoding: 240 240 329
GlifName: eth
Width: 2374
VWidth: 4730
Flags: HMW
LayerCount: 2
Fore
SplineSet
902 2580 m 1
 2654 2580 l 1
 2654 2564 l 1
 902 2564 l 1
 902 2580 l 1
2364 1622 m 0
 2364 762 1716 -40 1008 -40 c 0
 488 -40 164 180 164 712 c 0
 164 1556 868 2008 1364 2008 c 0
 1770 2008 1830 1722 1822 1242 c 1
 1802 1418 l 1
 1802 1680 1720 1966 1470 1966 c 0
 1048 1966 660 1222 660 566 c 0
 660 272 722 -24 1004 -24 c 0
 1410 -24 1802 910 1802 1418 c 1
 1810 1426 l 1
 1818 2270 1830 3096 970 3096 c 1
 970 3112 l 1
 1924 3112 2364 2438 2364 1622 c 0
EndSplineSet
EndChar

StartChar: OE
Encoding: 338 338 330
GlifName: O_E_
Width: 3992
Flags: HMW
LayerCount: 2
Fore
SplineSet
2044 3072 m 1
 2044 3044 l 1
 1306 3044 824 1716 824 766 c 0
 824 356 950 28 1352 28 c 1
 1352 0 l 1
 726 0 282 344 282 1036 c 0
 282 2186 1138 3072 2044 3072 c 1
EndSplineSet
Refer: 16 69 N 1 0 0 1 1540 0 2
EndChar

StartChar: germandbls
Encoding: 223 223 332
GlifName: germandbls
Width: 2928
VWidth: 4730
Flags: HMW
LayerCount: 2
Fore
SplineSet
2806 820 m 0
 2806 206 2282 -40 1868 -40 c 0
 1488 -40 1294 204 1294 508 c 0
 1294 746 1434 888 1602 888 c 0
 1750 888 1864 790 1864 626 c 0
 1864 478 1718 368 1582 368 c 0
 1446 368 1338 452 1314 558 c 1
 1286 242 1478 -16 1826 -16 c 0
 2190 -16 2302 442 2302 828 c 0
 2302 1214 2146 1650 1708 1650 c 1
 1708 1668 l 1
 2450 1668 2806 1352 2806 820 c 0
-102 16 m 1
 1102 16 l 1
 1102 0 l 1
 -102 0 l 1
 -102 16 l 1
1708 1654 m 1
 1708 1672 l 1
 2236 1672 2548 2142 2548 2486 c 0
 2548 2780 2444 3096 2068 3096 c 0
 1478 3096 1310 2522 1184 1970 c 2
 734 0 l 1
 266 0 l 1
 720 2012 l 2
 876 2708 1326 3112 2076 3112 c 0
 2620 3112 3056 2900 3056 2462 c 0
 3056 1996 2532 1654 1708 1654 c 1
EndSplineSet
EndChar

StartChar: uni0212
Encoding: 530 530 333
GlifName: uni0212
Width: 3010
VWidth: 0
Flags: HMW
LayerCount: 2
Fore
SplineSet
2446 3358 m 1
 2482 3550 2298 3646 2076 3646 c 0
 1854 3646 1590 3558 1544 3358 c 1
 1528 3358 l 1
 1568 3608 1724 3936 2118 3936 c 0
 2504 3936 2502 3608 2462 3358 c 1
 2446 3358 l 1
EndSplineSet
Refer: 29 82 N 1 0 0 1 0 0 3
EndChar

StartChar: uni0213
Encoding: 531 531 334
GlifName: uni0213
Width: 1748
VWidth: 0
Flags: HMW
LayerCount: 2
Fore
SplineSet
1642 2180 m 1
 1678 2372 1500 2466 1278 2466 c 0
 1056 2466 792 2380 746 2180 c 1
 730 2180 l 1
 770 2430 924 2756 1318 2756 c 0
 1704 2756 1702 2430 1662 2180 c 1
 1642 2180 l 1
EndSplineSet
Refer: 55 114 N 1 0 0 1 0 0 3
EndChar

StartChar: circumflex
Encoding: 710 710 335
GlifName: circumflex
Width: 1658
Flags: HMW
LayerCount: 2
Fore
SplineSet
1360 2928 m 1
 664 2654 l 1
 656 2662 l 1
 1220 3154 l 1
 1520 3154 l 1
 1904 2662 l 1
 1896 2654 l 1
 1360 2928 l 1
EndSplineSet
EndChar

StartChar: caron
Encoding: 711 711 336
GlifName: caron
Width: 1658
Flags: HMW
LayerCount: 2
Fore
SplineSet
1282 2946 m 1
 1978 3220 l 1
 1986 3212 l 1
 1430 2720 l 1
 1130 2720 l 1
 738 3212 l 1
 746 3220 l 1
 1282 2946 l 1
EndSplineSet
EndChar

StartChar: pi
Encoding: 960 960 337
GlifName: pi
Width: 2478
VWidth: 4730
Flags: HMW
LayerCount: 2
Fore
SplineSet
344 -40 m 0
 168 -40 78 62 78 180 c 0
 78 516 584 390 802 1160 c 2
 996 1844 l 1
 1224 1844 l 1
 1000 996 l 2
 840 390 680 -40 344 -40 c 0
2252 422 m 1
 2150 136 1970 -40 1688 -40 c 0
 1488 -40 1298 110 1364 376 c 2
 1704 1720 l 1
 2170 1720 l 1
 1818 390 l 2
 1778 238 1844 192 1942 192 c 0
 2090 192 2162 290 2240 430 c 1
 2252 422 l 1
2540 1884 m 1
 2396 1434 l 1
 348 1434 l 1
 274 1126 l 1
 258 1126 l 1
 438 1884 l 1
 2540 1884 l 1
EndSplineSet
EndChar

StartChar: uni1E9E
Encoding: 7838 7838 338
GlifName: uni1E_9E_
Width: 3370
VWidth: 4730
Flags: HMW
LayerCount: 2
Fore
SplineSet
1278 574 m 0
 1278 762 1392 888 1560 888 c 0
 1708 888 1822 790 1822 626 c 0
 1822 478 1684 368 1548 368 c 0
 1404 368 1334 462 1306 520 c 1
 1318 250 1520 -8 1958 -8 c 0
 2486 -8 2728 508 2728 958 c 0
 2728 1278 2622 1650 2150 1650 c 1
 2150 1668 l 1
 2956 1668 3248 1416 3248 950 c 0
 3248 302 2676 -40 2032 -40 c 0
 1466 -40 1278 262 1278 574 c 0
-102 16 m 1
 1134 16 l 1
 1134 0 l 1
 -102 0 l 1
 -102 16 l 1
2150 1654 m 1
 2150 1672 l 1
 2842 1672 2974 2274 2974 2552 c 0
 2974 2782 2880 3096 2356 3096 c 0
 1652 3096 1336 2450 1184 1806 c 2
 766 0 l 1
 266 0 l 1
 688 1848 l 2
 868 2638 1492 3112 2364 3112 c 0
 3130 3112 3498 2866 3498 2494 c 0
 3498 2126 3138 1654 2150 1654 c 1
EndSplineSet
EndChar

StartChar: uni203D
Encoding: 8253 8253 339
GlifName: uni203D_
Width: 2358
Flags: HMW
LayerCount: 2
Fore
SplineSet
1744 2192 m 0
 1666 1758 1290 1524 1126 910 c 1
 1110 910 l 1
 1232 1524 1212 1748 1212 2060 c 0
 1212 2306 1282 2490 1500 2490 c 0
 1660 2490 1776 2368 1744 2192 c 0
2064 2498 m 0
 2064 2802 1920 3092 1548 3092 c 0
 1056 3092 672 2744 626 2494 c 1
 658 2540 738 2622 856 2622 c 0
 982 2622 1114 2532 1114 2368 c 0
 1114 2180 958 2102 840 2102 c 0
 700 2102 582 2204 582 2388 c 0
 582 2740 1032 3112 1590 3112 c 0
 2078 3112 2544 2916 2544 2416 c 0
 2544 1826 1872 1372 1282 1372 c 1
 1282 1388 l 1
 1676 1514 2064 1994 2064 2498 c 0
EndSplineSet
Refer: 1 46 N 1 0 0 1 610 0 2
EndChar

StartChar: R.alt
Encoding: 65536 -1 340
GlifName: R_.alt
Width: 2924
Flags: HMW
LayerCount: 2
Fore
SplineSet
2614 0 m 1
 2548 0 2466 0 2318 0 c 0
 1322 0 2354 1568 1388 1568 c 2
 966 1568 l 1
 966 1576 l 1
 1512 1576 l 2
 2892 1576 2030 16 2510 16 c 0
 2556 16 2614 16 2614 16 c 1
 2614 0 l 1
958 3072 m 1
 1446 3072 l 1
 730 0 l 1
 242 0 l 1
 958 3072 l 1
-160 16 m 1
 1180 16 l 1
 1180 0 l 1
 -160 0 l 1
 -160 16 l 1
1536 1568 m 2
 966 1568 l 1
 966 1586 l 1
 1496 1586 l 2
 2062 1586 2314 2134 2314 2524 c 0
 2314 2724 2264 3056 1888 3056 c 2
 516 3056 l 1
 516 3072 l 1
 1946 3072 l 2
 2482 3072 2850 2908 2850 2458 c 0
 2850 1884 2360 1568 1536 1568 c 2
EndSplineSet
EndChar

StartChar: J.alt
Encoding: 65537 -1 341
GlifName: J_.alt
Width: 2342
Flags: HMW
LayerCount: 2
Fore
SplineSet
1426 3072 m 1
 2818 3072 l 1
 2818 3056 l 1
 1426 3056 l 1
 1426 3072 l 1
1916 3072 m 1
 2408 3072 l 1
 1958 1146 l 2
 1810 524 1328 -40 668 -40 c 0
 230 -40 20 266 20 594 c 0
 20 906 190 1064 386 1064 c 0
 562 1064 704 966 704 754 c 0
 704 586 568 446 364 446 c 0
 204 446 76 550 40 648 c 1
 12 292 238 -24 668 -24 c 0
 1164 -24 1348 476 1466 1024 c 2
 1916 3072 l 1
EndSplineSet
EndChar

StartChar: four.alt
Encoding: 65538 -1 342
GlifName: four.alt
Width: 2534
VWidth: 4730
Flags: HMW
LayerCount: 2
Fore
SplineSet
2228 2040 m 1
 1774 -4 l 1
 1286 -4 l 1
 1712 1916 l 1
 1868 1916 2122 1982 2228 2040 c 1
2114 16 m 1
 2114 0 l 1
 930 0 l 1
 930 16 l 1
 2114 16 l 1
94 806 m 1
 2330 806 l 1
 2330 790 l 1
 62 790 l 1
 660 1610 1802 2450 1908 3072 c 1
 2424 3072 l 1
 2338 2446 700 1576 94 806 c 1
EndSplineSet
EndChar

StartChar: fj.lig
Encoding: 65539 -1 343
GlifName: fj.lig
Width: 2382
VWidth: 4730
Flags: HMW
LayerCount: 2
Fore
SplineSet
1438 90 m 2
 1778 1864 l 1
 242 1868 l 1
 242 1884 l 1
 2224 1884 l 1
 1896 156 l 2
 1798 -360 1418 -860 852 -860 c 0
 480 -860 308 -626 308 -434 c 0
 308 -250 438 -144 586 -144 c 0
 712 -144 852 -226 852 -394 c 0
 852 -570 714 -660 574 -660 c 0
 452 -660 372 -582 356 -528 c 1
 384 -672 544 -844 848 -844 c 0
 1192 -844 1340 -406 1438 90 c 2
2298 2772 m 1
 2262 2920 2114 3096 1762 3096 c 0
 1402 3096 1184 2712 1094 2212 c 2
 684 -50 l 2
 582 -620 208 -1064 -324 -1064 c 0
 -680 -1064 -840 -822 -840 -634 c 0
 -840 -450 -722 -348 -574 -348 c 0
 -448 -348 -304 -422 -304 -602 c 0
 -304 -782 -442 -868 -586 -868 c 0
 -712 -868 -786 -770 -802 -724 c 1
 -770 -856 -638 -1044 -344 -1044 c 0
 -58 -1044 144 -664 230 -164 c 2
 622 2098 l 2
 720 2672 1130 3112 1744 3112 c 0
 2182 3112 2334 2870 2334 2682 c 0
 2334 2498 2216 2396 2068 2396 c 0
 1942 2396 1798 2470 1798 2650 c 0
 1798 2830 1936 2916 2080 2916 c 0
 2206 2916 2278 2826 2298 2772 c 1
EndSplineSet
LCarets2: 1 0
Ligature2: "'liga' Standard Ligatures lookup 0-1" f j
EndChar

StartChar: v.alt
Encoding: 65540 -1 344
Width: 1990
VWidth: 4730
Flags: HW
LayerCount: 2
Fore
SplineSet
758 1946 m 1
 766 1934 l 1
 598 1840 552 1708 552 1572 c 0
 552 1228 974 1060 974 552 c 0
 974 482 954 250 946 156 c 1
 1590 500 1954 874 1954 1410 c 0
 1954 1500 1936 1614 1908 1654 c 1
 1896 1544 1802 1372 1598 1372 c 0
 1410 1372 1318 1520 1318 1646 c 0
 1318 1794 1434 1922 1610 1922 c 0
 1892 1922 1970 1660 1970 1410 c 0
 1970 718 1376 340 578 -50 c 1
 492 -24 l 1
 500 66 520 352 520 434 c 0
 520 750 122 1020 122 1324 c 0
 122 1652 488 1840 758 1946 c 1
EndSplineSet
EndChar

StartChar: uni2116
Encoding: 8470 8470 345
Width: 4546
Flags: HW
LayerCount: 2
Fore
SplineSet
3342 1298 m 1
 4350 1298 l 1
 4346 1282 l 1
 3338 1282 l 1
 3342 1298 l 1
4260 3112 m 0
 4608 3112 4830 2924 4830 2576 c 0
 4830 1950 4376 1556 3904 1556 c 0
 3556 1556 3334 1746 3334 2094 c 0
 3334 2720 3788 3112 4260 3112 c 0
3702 1926 m 0
 3702 1664 3772 1572 3920 1572 c 0
 4202 1572 4460 2244 4460 2744 c 0
 4460 3006 4392 3096 4244 3096 c 0
 3962 3096 3702 2426 3702 1926 c 0
EndSplineSet
Refer: 25 78 N 1 0 0 1 106 0 2
EndChar

StartChar: Euro
Encoding: 8364 8364 346
Width: 2998
Flags: HW
LayerCount: 2
Fore
SplineSet
3130 2600 m 1
 3090 2808 2832 3092 2438 3092 c 0
 1664 3092 1168 1912 1168 938 c 0
 1168 472 1310 -12 1724 -12 c 0
 2138 -12 2580 340 2724 730 c 1
 2740 730 l 1
 2592 332 2154 -40 1658 -40 c 0
 1146 -40 618 298 618 1126 c 0
 618 2216 1458 3112 2396 3112 c 0
 2896 3112 3166 2736 3166 2498 c 0
 3166 2306 3032 2204 2892 2204 c 0
 2774 2204 2618 2286 2618 2474 c 0
 2618 2642 2768 2740 2904 2740 c 0
 3018 2740 3106 2654 3130 2600 c 1
EndSplineSet
Refer: 88 61 N 1 0 0 1 -122 -286 2
EndChar
